<svg width="2271" height="728" viewBox="0 0 2271 728" fill="none" xmlns="http://www.w3.org/2000/svg">
<path d="M24.58 450.144L18.2019 448.219M24.58 450.144L33.1068 454.101C37.0014 455.909 41.3993 456.269 45.5344 455.113C56.681 451.997 79.7544 445.567 93.0849 441.996C96.4559 441.093 99.3386 440.334 102.069 439.637M24.58 450.144C24.58 450.144 45.0376 447.778 55.4776 445.155C73.9392 440.518 87.6448 434.156 106.245 430.11C120.022 427.112 122.62 426.445 133.41 425.29M18.2019 448.219C18.2019 448.219 18.5791 443.662 18.2019 440.782C17.533 435.675 15.6318 433.149 13.5225 428.449C9.74328 420.029 5.19921 415.988 2.97942 407.029C1.08205 399.372 -0.739284 394.972 1.61319 387.835C2.13152 386.263 3.08475 384.504 4.06759 382.927C5.99142 379.841 9.41951 378.132 13.0485 377.895L26.9172 376.99C26.9172 376.99 27.7805 382.291 30.1068 384.433C33.9556 387.976 40.1013 387.835 43.5032 384.433C48.864 379.071 51.3939 374.86 52.8593 367.422C53.2962 365.204 53.6201 362.801 53.7504 360.38M18.2019 448.219C18.2019 448.219 25.4816 447.587 30.1068 446.884C40.1816 445.353 44.3668 444.281 54.2666 441.865C62.3469 439.893 66.822 437.931 74.9435 435.676C85.4644 432.755 91.3352 430.9 102.069 428.896C113.718 426.721 133.41 425.29 133.41 425.29M28.3276 352.324C28.3276 352.324 37.4288 339.569 44.6723 341.373C52.3115 343.277 54.2045 351.945 53.7504 360.38M28.3276 352.324L11.6071 352.324M28.3276 352.324L53.7504 360.38M11.6071 352.324L33.4048 360.38L39.1419 361.392L53.7504 360.38M11.6071 352.324C8.89268 349.048 7.61422 344.791 8.3629 340.603C8.80587 338.125 9.37772 335.382 10.0438 333.201C13.3954 322.229 24.5782 307.67 24.5782 307.67C24.5782 307.67 32.3426 299.926 35.6355 293.848C37.7459 289.953 39.6342 283.762 40.2853 281.515C40.4261 281.029 40.8902 280.718 41.3907 280.793C45.7136 281.438 65.277 284.401 77.8884 287.014C92.4397 290.029 106.06 295.615 119.911 296.94M189.29 295.714C168.968 297.634 157.77 297.357 136.103 297.254M189.29 295.714C189.29 295.714 187.801 291.612 189.29 289.894C189.945 289.139 191.455 288.525 191.455 288.525M189.29 295.714C197.572 294.932 204.493 294.164 210.847 293.275M416.899 297.251C416.899 297.251 384.803 300.899 365.228 295.975C355.877 293.622 350.758 291.608 342.05 287.469C328.969 281.251 312.162 267.595 307.677 263.863C306.992 263.293 306.024 263.243 305.277 263.729C302.432 265.58 295.415 270.082 291.016 272.372C289.682 273.066 288.39 273.699 287.131 274.281C283.391 276.008 279.944 277.275 276.549 278.315M416.899 297.251L418.003 295.495L424.002 295.495M416.899 297.251L416.239 303.823M255.459 433.176C238.297 429.743 228.324 429.829 210.847 428.896C210.847 428.896 182.443 427.55 164.324 428.896C146.377 430.23 118.742 435.676 118.742 435.676C116.803 436.111 115.026 436.514 113.35 436.901M255.459 433.176C255.459 433.176 247.88 430.342 242.906 428.896C227.866 424.524 218.826 424.42 203.217 423.12C178.203 421.038 163.857 422.235 138.881 424.728C136.83 424.932 135.028 425.117 133.41 425.29M255.459 433.176L254.37 442.614M255.459 433.176C256.743 433.433 257.947 433.661 259.094 433.874M291.272 446.051C291.272 446.051 283.356 441.255 276.987 438.623C270.183 435.81 265.544 435.073 259.094 433.874M291.272 446.051L301.996 454.485C302.758 455.086 303.837 455.056 304.565 454.414C307.589 451.741 315.48 444.844 321.252 440.457C335.59 429.56 344.111 423.727 360.472 416.2C377.174 408.517 405.363 402.024 405.363 402.024L418.752 398.452L502.502 398.452M291.272 446.051L302.163 434.756C302.163 434.756 316.978 421.331 327.98 414.99C342.509 406.617 351.864 403.506 368.318 400.267C378.097 398.342 395.808 398.145 407.158 398.247M291.272 446.051L301.685 442.765C301.999 442.666 302.281 442.494 302.512 442.26C304.795 439.955 317.812 426.975 327.98 420.453C335.681 415.513 340.382 413.289 348.817 409.743C365.591 402.69 394.022 398.452 394.022 398.452M506.529 398.452L502.502 398.452M506.529 398.452L583.871 398.452M506.529 398.452L511.048 318.764M1541.58 402.478L1541.58 406.008M1541.58 402.478L1514.02 402.478M1541.58 402.478L1536.26 326.869M1541.58 406.008L1434.14 405.114M1541.58 406.008L1541.58 415.908C1541.58 417.565 1542.93 418.908 1544.58 418.908L1618.69 418.908C1619.79 418.908 1620.89 418.695 1621.85 418.171C1622.56 417.79 1623.36 417.3 1623.91 416.799C1626.09 414.829 1626.37 411.59 1626.1 408.664L1618.36 325.458M1336.11 404.299L1275.65 402.162M1336.11 404.299C1336.11 404.299 1361.54 406.243 1368.38 413.097C1377.02 421.759 1389.39 423.269 1389.39 423.269C1389.39 423.269 1407.11 434.431 1415.84 444.336C1430.22 460.637 1433.06 474.362 1433.02 495.402C1432.98 518.234 1425.73 531.506 1412.59 550.183C1405.46 560.325 1390.93 576.007 1390.93 576.007M1336.11 404.299L1409.38 404.908M1275.65 402.162L1269.5 402.138M1275.65 402.162L1300.5 402.258M589.399 292.401L512.459 293.885M589.399 292.401L583.871 398.452M589.399 292.401L594.496 292.401M424.002 295.495L508.46 293.958M424.002 295.495L419.172 352.346M254.37 442.614L259.094 442.614M254.37 442.614C254.37 442.614 245.074 442.363 245.505 446.051C245.753 448.178 247.502 450.444 247.502 450.444M259.094 442.614L259.094 433.874M259.094 442.614L266.038 442.614C266.038 442.614 268.524 444.348 268.837 446.051C269.345 448.805 264.171 451.495 264.171 451.495M264.171 451.495L250.171 451.495L247.502 450.444M264.171 451.495L273.113 458.586C274.589 459.757 275.43 461.553 275.383 463.437L274.787 487.303C274.764 488.206 274.141 488.979 273.26 489.172C269.113 490.082 257.2 492.428 249.073 491.321C243.252 490.528 235.349 487.415 232.081 486.052C231.199 485.684 230.726 484.734 230.939 483.802L236.029 461.565C236.323 460.28 237.033 459.128 238.047 458.286L247.502 450.444M179.7 428.896L179.7 440.907M179.7 440.907L186.334 440.907M179.7 440.907L174.097 440.907C173.449 440.907 172.84 441.218 172.51 441.775C171.889 442.823 170.978 444.622 171.059 446.051C171.166 447.934 173.065 450.444 173.065 450.444M186.334 440.907L186.334 428.896M186.334 440.907L190.06 440.907C190.448 440.907 190.828 441.018 191.139 441.249C192.208 442.043 194.663 444.089 194.512 446.051C194.336 448.327 190.654 450.444 190.654 450.444M173.065 450.444L190.654 450.444M173.065 450.444L164.331 458.283C163.389 459.129 162.738 460.25 162.472 461.487L157.667 483.826C157.469 484.748 157.937 485.679 158.808 486.041C162.343 487.512 171.478 491.049 178.157 491.321C185.535 491.621 195.95 488.179 199.553 486.895C200.331 486.618 200.838 485.878 200.838 485.052L200.838 461.521C200.838 459.706 200.016 457.988 198.602 456.849L190.654 450.444M102.069 440.547C102.069 440.547 96.1632 440.985 95.9645 443.653C95.8496 445.193 97.6583 447.228 97.6583 447.228M102.069 440.547L102.069 439.637M102.069 440.547L114.785 440.547M117.796 447.228C117.796 447.228 121.963 445.789 121.936 443.653C121.922 442.461 119.675 441.079 118.959 440.668C118.817 440.587 118.656 440.547 118.493 440.547L114.785 440.547M117.796 447.228L97.6583 447.228M117.796 447.228L124.618 455.716C125.442 456.742 125.906 458.01 125.939 459.325L126.507 481.959C126.531 482.891 125.909 483.713 125.001 483.923C120.686 484.918 108.292 487.502 100.05 486.423C93.6501 485.585 85.799 482.376 82.5366 480.949C81.6434 480.558 81.1945 479.571 81.4571 478.632L87.9334 455.479C88.3187 454.102 89.1834 452.907 90.3716 452.111L97.6583 447.228M102.069 439.637C105.827 438.678 109.296 437.837 113.35 436.901M114.785 440.547L113.35 436.901M119.911 296.94C121.849 297.125 123.791 297.227 125.74 297.227C129.465 297.227 132.898 297.239 136.103 297.254M119.911 296.94L112.396 288.734C111.383 287.628 110.821 286.182 110.821 284.682L110.821 261.253C110.821 260.371 111.394 259.596 112.247 259.37C116.333 258.288 128.287 255.506 136.103 257.66C142.303 259.369 149.855 265.275 152.451 267.413C153.026 267.887 153.268 268.649 153.092 269.374L148.696 287.488C148.321 289.029 147.352 290.36 146 291.188L136.103 297.254M210.847 293.275C224.745 291.331 235.936 288.806 252.741 284.279C257.132 283.097 261.03 282.206 264.692 281.36M210.847 293.275L208.666 290.215M191.455 288.525L193.619 287.155C193.619 287.155 202.812 283.727 206.485 287.155C207.558 288.157 208.666 290.215 208.666 290.215M191.455 288.525L184.439 281.027C183.313 279.823 182.731 278.209 182.831 276.564L184.264 252.952C184.315 252.111 184.886 251.394 185.703 251.188C189.502 250.23 200.51 247.85 208.666 250.072C214.272 251.6 222.688 256.119 225.959 257.94C226.768 258.39 227.141 259.339 226.876 260.225L221.71 277.497C221.389 278.572 220.772 279.535 219.931 280.277L208.666 290.215M264.692 281.36L264.692 279.141M264.692 281.36C268.823 280.406 272.652 279.51 276.549 278.315M264.692 279.141L276.549 278.315M264.692 279.141L266.074 277.788C266.074 277.788 269.404 273.348 271.525 269.27M276.549 278.315C276.549 278.315 282.596 273.42 287.131 270.283M264.34 279.141C262.905 278.315 262.077 276.735 262.215 275.085L264.303 250.095C264.327 249.804 264.415 249.523 264.559 249.27L268.344 242.638C268.699 242.014 269.362 241.629 270.081 241.629L273.807 241.629M273.807 241.629L287.186 241.629C288.351 241.629 289.269 242.62 289.18 243.781L288.163 257.099C288.163 257.099 287.131 265.134 287.131 270.283M273.807 241.629C273.807 241.629 272.424 259.227 271.525 269.27M271.525 269.27C277.79 269.27 280.912 269.523 287.131 270.283M407.158 398.247L407.158 394.169M407.158 398.247C411.372 398.286 416.004 398.404 417.732 398.452L415.618 394.169M407.158 394.169L415.618 394.169M407.158 394.169L407.877 387.008M415.618 394.169L419.172 352.346M409.217 373.682C409.217 373.682 367.497 375.678 344.948 364.459C341.162 362.575 337.29 361.499 333.87 360.314M409.217 373.682L409.674 369.138M409.217 373.682L407.877 387.008M414.626 319.868C414.626 319.868 397.15 321.317 387.176 322.801C373.329 324.862 354.078 330.505 354.078 330.505C354.078 330.505 322.013 335.889 322.978 348.766C323.517 355.959 328.036 358.294 333.87 360.314M414.626 319.868L413.08 335.248M414.626 319.868L416.239 303.823M502.502 398.452L508.46 293.958M508.46 293.958L512.459 293.885M512.459 293.885L511.048 318.764M583.871 398.452L589.399 398.452M589.399 398.452L661.482 398.452M589.399 398.452L592.541 333.071M594.496 292.401L665.023 291.282M594.496 292.401L592.541 333.071M661.482 398.452L665.023 291.282M661.482 398.452L666.789 398.452M665.023 291.282L670.757 291.191M666.789 398.452L700.807 398.452L734.232 398.727M666.789 398.452L670.757 291.191M670.757 291.191L737.979 290.124M734.232 398.727L739.98 398.774M734.232 398.727L735.832 352.346M737.979 290.124L742.629 290.05M737.979 290.124L735.832 352.346M739.98 398.774L802.995 399.292M739.98 398.774L741.581 333.071M742.629 290.05L804.774 289.063M742.629 290.05L741.581 333.071M802.995 399.292L804.774 289.063M802.995 399.292L808.522 399.338M804.774 289.063L808.522 289.004M808.522 399.338L808.522 289.004M808.522 399.338L868.001 399.827M808.522 289.004L831.848 288.634L869.096 287.858M868.001 399.827L873.089 399.869M868.001 399.827L869.016 296.066M869.096 287.858L873.089 287.775M869.096 287.858L869.016 296.066M873.089 399.869L873.089 287.775M873.089 399.869L928.586 400.325M873.089 287.775L928.586 286.62M928.586 400.325L928.586 286.62M928.586 400.325L933.458 400.365M928.586 286.62L933.458 286.518M933.458 400.365L933.458 286.518M933.458 400.365L984.087 400.782M933.458 286.518L984.087 285.464M984.087 400.782L984.087 285.464M984.087 400.782L990.72 400.836M984.087 285.464L989.592 285.35M990.72 400.836L1038.26 401.228M990.72 400.836L989.592 330.735M989.592 285.35L1038.26 284.337M989.592 285.35L989.592 330.735M1038.26 401.228L1041.14 401.251L1043.12 401.259M1038.26 401.228L1038.26 294.266M1038.26 284.337L1043.12 284.235M1038.26 284.337L1038.26 294.266M1043.12 401.259L1043.12 284.235M1043.12 401.259L1088.67 401.436M1043.12 284.235L1087.12 283.319M1088.67 401.436L1093.76 401.456M1088.67 401.436L1088 349.913M1087.12 283.319L1091.77 283.223M1087.12 283.319L1088 349.913M1093.76 401.456L1091.77 283.223M1093.76 401.456L1137.32 401.625M1091.77 283.223L1117.62 282.685L1134.45 282.381M1137.32 401.625L1134.45 282.381M1137.32 401.625L1142.4 401.644M1134.45 282.381L1139.1 282.297M1142.4 401.644L1181.54 401.796M1142.4 401.644L1142.04 388.498M1139.1 282.297L1178.89 281.58M1139.1 282.297L1142.04 388.498M1181.54 401.796L1178.89 281.58M1181.54 401.796L1187.73 401.82M1178.89 281.58L1183.08 281.505M1187.73 401.82L1223.33 401.959M1187.73 401.82L1186.47 369.138M1183.08 281.505L1220.68 280.827M1183.08 281.505L1186.47 369.138M1223.33 401.959L1220.68 280.827M1223.33 401.959L1228.64 401.979M1220.68 280.827L1225.08 280.747M1228.64 401.979L1225.08 280.747M1228.64 401.979L1263.35 402.114M1225.08 280.747L1258.92 280.137M1263.35 402.114L1258.92 280.137M1263.35 402.114L1269.5 402.138M1258.92 280.137L1263.35 280.058M1269.5 402.138L1265.81 328.913M1263.35 280.058L1296.53 279.46M1263.35 280.058L1265.81 328.913M1300.5 402.258L1296.53 279.46M1300.5 402.258L1305.58 402.278M1296.53 279.46L1300.5 279.388M1305.58 402.278L1303.59 338.362L1300.5 279.388M1305.58 402.278L1336.11 402.397M1300.5 279.388L1330.86 278.841M1336.11 402.397L1333.67 335.02L1331.29 287.507M1336.11 402.397L1341.88 402.419M1330.86 278.841L1336.11 278.746M1330.86 278.841L1331.29 287.507M1341.88 402.419L1356.99 402.478L1369.91 402.478M1341.88 402.419L1336.11 278.746M1336.11 278.746L1363.96 278.244M1369.91 402.478L1363.96 278.244M1369.91 402.478L1375.01 402.478M1363.96 278.244L1368.48 278.163M1375.01 402.478L1368.48 278.163M1375.01 402.478L1400.2 402.478M1368.48 278.163L1394.27 277.698M1400.2 402.478L1394.27 277.698M1400.2 402.478L1406.15 402.478M1394.27 277.698L1398.51 277.621M1406.15 402.478L1430.22 402.478M1406.15 402.478L1401.53 326.869M1398.51 277.621L1407.76 277.455M1398.51 277.621L1401.53 326.869M1430.22 402.478L1423.14 277.177M1430.22 402.478L1435.6 402.478M1423.14 277.177L1425.56 277.134L1427.11 277.104M1423.14 277.177L1415.45 277.316M1435.6 402.478L1427.11 277.104M1435.6 402.478L1458.25 402.478M1427.11 277.104L1450.02 276.66M1427.11 277.104C1427.11 277.104 1433.21 271.572 1436.18 267.464C1445.57 254.469 1449.03 245.647 1451.31 229.291C1453.61 212.811 1451.79 200.844 1446.78 184.976C1442.96 172.894 1438.93 166.671 1431.8 156.197C1421.63 141.251 1399.71 122.831 1399.71 122.831C1395.18 117.937 1390.62 111.065 1394.18 105.429C1394.43 105.033 1394.71 104.657 1395.04 104.31C1399.07 100.046 1403.13 96.4799 1408.96 95.8169C1421.54 94.3854 1425.98 95.9279 1441.23 98.947C1469.08 104.461 1488.41 118.838 1515.31 127.914C1542.26 137.005 1557.61 144.108 1586.02 145.281C1609.56 146.253 1623.24 144.356 1645.87 137.838C1668.2 131.408 1693.04 113.552 1709.74 99.9045C1722.79 89.2366 1738.19 81.2181 1755.04 80.8725C1772.7 80.5105 1795.61 82.0304 1811.08 90.4538C1832.63 102.186 1848.27 135.92 1848.27 135.92C1848.27 135.92 1827.46 153.863 1817.99 166.989C1806.76 182.555 1801.99 193.151 1798.14 211.956C1795.8 223.377 1795.97 241.728 1795.97 241.728M1458.25 402.478L1450.02 276.66M1458.25 402.478L1463.06 402.478M1450.02 276.66L1454.84 276.566M1463.06 402.478L1484.58 402.478M1463.06 402.478L1460.88 369.138M1454.84 276.566L1476.08 276.039M1454.84 276.566L1460.88 369.138M1484.58 402.478L1476.08 276.039M1484.58 402.478L1489.96 402.478M1476.08 276.039L1482.04 276.039M1489.96 402.478L1482.04 276.039M1489.96 402.478L1509.49 402.478M1482.04 276.039L1502.13 275.223M86.7106 397.664C82.6689 397.972 79.4251 394.462 79.2854 390.411C79.1407 386.217 82.5253 382.324 86.7106 382.641C88.307 382.762 89.6839 383.424 90.7456 384.433M86.7106 397.664C86.7106 397.664 88.4968 401.479 90.7456 403.185M86.7106 397.664C87.3567 397.615 87.9651 397.48 88.5305 397.27M86.7106 397.664L76.4556 398.626M1509.49 402.478L1502.13 275.223M1509.49 402.478L1514.02 402.478M1502.13 275.223L1505.25 275.223M1514.02 402.478L1505.25 275.223M1505.25 275.223L1524.18 275.223L1524.18 278.157L1529.9 278.157M1390.93 576.007L1390.93 604.882L1390.93 609.541C1390.93 609.541 1388.27 610.147 1385.66 609.962M1390.93 576.007C1390.93 576.007 1382.44 572.382 1381.47 576.038C1381.19 577.093 1381.21 576.949 1381.47 578.007C1382.03 580.255 1385.66 579.369 1385.66 579.369L1385.66 585.827M1385.66 599.053L1385.66 604.882C1385.66 604.882 1383.53 604.676 1382.46 604.882C1380.7 605.218 1380.93 607.61 1381.47 608.288C1382.37 609.407 1384.01 609.845 1385.66 609.962M1385.66 599.053L1385.66 587.251L1385.66 585.827M1385.66 599.053L1378.8 598.365M1370.49 599.053C1370.19 601.152 1369.89 602.716 1369.89 602.716C1366.33 600.276 1365.4 600.822 1365.4 596.504C1365.4 593.919 1365.4 591.372 1365.4 588.239C1365.4 583.738 1365.58 582.726 1369.89 581.417C1369.89 581.417 1370.28 583.679 1370.6 586.45M1370.49 599.053C1370.75 597.201 1371 594.931 1371.03 592.955C1371.06 591.017 1370.85 588.583 1370.6 586.45M1370.49 599.053L1372.97 599.053M1372.97 599.053L1372.97 607.536C1377.26 607.536 1378.5 603.096 1378.8 598.365M1372.97 599.053L1372.97 586.45M1370.6 586.45L1372.97 586.45M1372.97 586.45L1372.97 579.369C1377.92 578.611 1378.77 582.703 1378.87 587.251M1378.8 598.365C1378.9 596.644 1378.89 594.885 1378.85 593.286C1378.8 591.451 1378.91 589.304 1378.87 587.251M1378.87 587.251L1385.66 585.827M1385.66 609.962C1391.22 615.446 1399.65 621.813 1410.35 625.467C1425.16 630.532 1433.06 630.327 1447.23 628.646C1461.41 626.964 1484.81 616.894 1484.81 616.894M1484.81 616.894C1484.81 616.894 1511.38 603.734 1528.19 595.785C1536.18 592.009 1542.11 588.758 1548.16 585.757M1484.81 616.894C1484.81 616.894 1439.02 629.453 1417.44 614.377C1408.37 608.039 1401.04 603.779 1398.51 593.286C1397.15 587.611 1397 583.644 1398.51 578.007C1399.96 572.64 1404.24 568.02 1407.24 565.32C1409.22 563.531 1411.31 561.859 1413.18 559.95C1419.26 553.732 1433.52 538.506 1439.35 526.631C1446.25 512.583 1449.21 502.749 1450.02 487.12C1450.86 471.17 1449.31 461.543 1443.17 446.801C1439.35 437.641 1436.31 432.772 1430.22 424.941C1423.29 416.032 1409.38 404.908 1409.38 404.908M1373.05 108.534C1373.05 108.534 1374.6 104.993 1379.74 98.947C1392.13 84.3679 1406.08 80.2208 1429.38 83.4124C1439.33 84.7752 1441.05 85.7293 1462.94 92.6251C1472.69 95.6959 1508.82 111.953 1508.82 111.953C1508.82 111.953 1579.49 139.8 1621.59 129.604C1650.44 122.615 1659.08 111.501 1684.03 93.6172C1712.93 72.894 1729.92 60.0666 1763.48 41.9385C1806.92 18.4671 1840.4 4.11529 1894.01 1.21955C1915.74 0.045912 1922.4 -0.00737069 1949.85 3.48384C1977.3 6.97505 2003.88 15.3088 2037.58 28.524C2073.28 42.5265 2097.84 59.6013 2123.41 80.0575C2138.48 92.1139 2153.75 105.76 2167.59 123.006C2212.07 178.425 2228.08 209.326 2245.36 279.809C2261.18 344.297 2266.76 377.296 2269.38 443.403C2271.06 486.008 2267.82 506.872 2252.83 551.903C2241.51 585.943 2226.08 613.668 2201.85 640.128C2190.85 652.142 2184.1 658.485 2171.33 668.475C2153.16 682.678 2120.99 698.466 2120.99 698.466C2120.99 698.466 2091.3 709.549 2068.29 714.918C2041.5 721.165 2021.35 726.175 1993.85 725.716C1989.58 725.645 1985.84 725.568 1982.34 725.439M1373.05 108.534C1373.05 108.534 1361.02 126.521 1359.13 136.899C1358.55 140.139 1358.69 142.836 1358.88 144.422C1359 145.435 1359.49 146.34 1360.2 147.08C1362.89 149.915 1370.14 157.44 1375.47 161.932C1388.43 172.867 1396.05 180.185 1404.57 194.528C1410.46 204.428 1413.34 210.354 1415.97 221.565C1419.29 235.66 1419.85 244.81 1415.97 258.841C1414.45 264.371 1410.84 271.621 1408.96 275.223M1373.05 108.534C1373.05 108.534 1372.86 116.889 1374.36 121.881C1376.67 129.556 1387.04 136.899 1387.04 136.899C1387.04 136.899 1404.21 149.891 1412.51 160.681C1421.57 172.469 1427.87 180.306 1432.2 194.528C1436.37 208.21 1437.1 216.706 1435.45 230.912C1434.12 242.291 1431.97 248.964 1425.56 258.841C1420.95 265.938 1408.96 275.223 1408.96 275.223M1407.76 277.455L1415.45 277.316M1407.76 277.455C1407.76 277.455 1408.23 276.609 1408.96 275.223M1409.38 404.908L1419.15 404.99M1419.15 404.99C1419.15 404.99 1432.67 414.99 1439.35 423.269C1446.02 431.525 1449.13 436.896 1452.93 446.801C1458.63 461.626 1459.35 471.276 1458.25 487.12C1457.13 503.099 1454.28 512.244 1447.23 526.631C1441.56 538.225 1429.44 551.926 1423.14 558.647C1420.52 561.44 1417.56 563.871 1414.73 566.454C1411.5 569.408 1407.47 573.753 1406.15 578.007C1404.43 583.584 1404.28 587.427 1406.15 592.955C1408.74 600.596 1419.15 608.288 1419.15 608.288C1419.15 608.288 1429.11 615.297 1439.94 616.894C1452.45 618.737 1467.3 617.687 1479.5 614.377C1491.28 611.18 1496.69 606.169 1507.71 600.903C1529.11 590.672 1539.97 582.139 1562.48 574.664C1576.02 570.169 1583.85 568.202 1597.91 565.808C1607.82 564.119 1613.44 563.237 1623.49 562.856C1644.12 562.074 1659.57 562.856 1678.29 571.117L1703.85 586.471C1703.85 586.471 1736.71 609.998 1758.62 624.19C1791.74 645.635 1810.24 658.512 1845.61 676.341C1871.19 689.24 1886.47 697.146 1913.76 705.861C1934.81 712.579 1946.31 716.12 1967.88 718.652C1977.98 719.838 1993.85 720.292 1993.85 720.292C1993.85 720.292 2013.44 721.223 2025.94 720.292C2049.74 718.519 2062.78 714.057 2085.63 707.173C2100.61 702.662 2109.1 700.171 2123.35 693.725C2141.18 685.658 2151.09 680.357 2166.65 668.475C2187.89 652.242 2199.93 640.03 2214.53 617.631C2214.53 617.631 2225.57 601.566 2231.62 590.668C2240.81 574.107 2245.03 564.214 2251.34 546.354C2257.69 528.396 2260.91 518.036 2263.89 499.223C2267.71 475.109 2266.79 461.038 2266.1 436.632C2265.23 405.191 2262.35 387.663 2257.74 356.549C2253.62 328.721 2250.77 313.136 2243.91 285.853C2237.33 259.676 2234.2 244.622 2223.68 219.767C2217 203.999 2212.61 195.385 2203.97 180.597C2194.58 164.503 2188.46 155.948 2177.18 141.111C2169.94 131.583 2165.83 126.252 2157.81 117.366C2150.1 108.813 2145.97 104.084 2137.5 96.276C2125.32 85.0445 2118.02 79.193 2104.54 69.5621C2093.51 61.683 2086.73 57.7583 2074.86 50.9718C2064.9 45.2808 2059.26 42.1457 2048.88 37.27C2037.08 31.7262 2030.23 29.0808 2017.95 24.6843C2004.26 19.7802 1996.44 17.314 1982.33 13.8052C1969.96 10.7313 1962.94 9.27708 1950.33 7.40571C1937.5 5.50067 1930.24 4.4023 1917.27 4.206C1901.89 3.97329 1893.27 5.41393 1878.02 7.4057C1857.56 10.0781 1845.72 11.0266 1826.18 17.6448C1813.88 21.8093 1807.43 25.347 1795.68 30.8705C1777.6 39.3674 1767.69 44.6734 1750.45 54.7618C1730.87 66.222 1720.58 73.791 1701.82 86.5459C1687.32 96.4009 1667.61 110.557 1656.63 118.499C1651.15 122.467 1645.17 125.706 1638.78 127.948C1631.97 130.339 1623.19 133.277 1618.3 134.357C1602.49 137.842 1584 134.913 1584 134.913C1566.13 133.266 1556.74 130.779 1538.99 125.682C1517.23 119.434 1505.01 112.438 1484.07 103.825C1472.11 98.9003 1467.28 96.5991 1453.37 91.3605C1439.85 86.2698 1426.86 83.675 1412.51 85.3009C1401.81 86.5124 1394.22 87.8053 1387.04 95.8169C1382.91 100.414 1380 103.675 1379.74 109.845C1379.53 114.763 1381.28 117.479 1383.48 121.881C1388.29 131.481 1396.04 132.984 1403.67 140.541C1414.47 151.242 1421.42 157.579 1429.38 170.534C1435.81 181.009 1441.23 199.453 1441.23 199.453C1441.23 199.453 1445.35 223.484 1440.42 239.516C1437.86 247.873 1435.8 252.767 1430.65 259.831C1425.31 267.16 1415.45 277.316 1415.45 277.316M1419.15 404.99L1434.14 405.114M1434.14 405.114C1434.14 405.114 1444.76 415.453 1450.02 423.269C1456.89 433.464 1459.64 440.108 1463.06 451.911C1466.42 463.493 1467.3 470.429 1467.37 482.487C1467.46 498.713 1466.02 508.282 1460.13 523.402C1454.07 538.951 1447.75 546.582 1436.94 559.295C1432.03 565.072 1425.01 572.216 1420.72 576.484C1418.22 578.972 1415.78 581.748 1415.1 585.21C1415.03 585.561 1414.99 585.904 1414.97 586.228C1414.7 591.003 1417.22 593.63 1420.4 597.204C1422.63 599.713 1428.2 601.949 1432.82 603.47C1437.5 605.012 1442.43 605.562 1447.36 605.491C1452.26 605.421 1458.59 605.237 1463.1 604.768C1484.24 602.57 1512.42 586.03 1512.42 586.03C1512.42 586.03 1534.37 573.853 1549.2 567.714C1562.11 562.368 1569.52 559.635 1583.02 556.045C1594.68 552.947 1601.32 551.314 1613.3 549.989C1625.06 548.69 1643.58 549.251 1643.58 549.251C1643.58 549.251 1655.47 550.961 1662.93 552.796C1675.73 555.941 1682.69 558.744 1694.69 564.169C1706.08 569.314 1721.35 577.397 1721.35 577.397C1721.35 577.397 1721.35 560.83 1721.35 550.409C1721.35 535.927 1722.45 532.179 1725.45 520.961C1728.81 508.354 1730.75 500.281 1737.32 489.008C1743.93 477.674 1748.12 471.239 1757.97 462.57C1766.16 455.358 1780.73 448.573 1780.73 448.573L1775.86 401.71M1795.97 241.728L1762.55 241.728C1760.77 241.728 1759.38 243.268 1759.57 245.038L1763.26 280.581M1795.97 241.728L1857.46 240.989C1859.42 240.966 1861.45 241.082 1863.12 242.103C1864.46 242.927 1865.13 244.474 1865.33 246.034L1889.21 431.663C1889.61 434.785 1889.84 438.372 1887.62 440.598C1885.63 442.586 1880.78 442.839 1880.78 442.839L1787.33 443.753C1786.22 443.764 1785.14 443.417 1784.25 442.763C1783.17 441.974 1782.45 440.795 1782.22 439.479L1775.86 401.71M1515.6 522.553L1517.03 526.296M1515.6 522.553C1515.6 522.553 1516.81 517.076 1520.41 514.828M1515.6 522.553L1513.06 522.553C1512.42 522.553 1511.95 523.148 1512.09 523.774L1512.88 527.293C1513.04 527.962 1513.8 528.283 1514.38 527.924L1517.03 526.296M1517.03 526.296C1517.03 526.296 1521.3 529.651 1524.97 529.056M1534.85 525.075C1535.81 536.799 1528.1 545.095 1516.17 544.542C1504.97 544.022 1496.44 534.607 1496.75 523.402C1497.08 511.887 1506.96 502.651 1518.45 503.423C1518.45 503.423 1524.56 503.393 1527.23 505.717C1529.05 507.299 1530.44 510.985 1530.44 510.985M1534.85 525.075C1534.85 525.075 1537.82 521.196 1536.16 517.105C1534.84 513.869 1532.65 511.397 1530.44 510.985M1534.85 525.075C1533.9 526.124 1530.89 527.357 1529.25 527.988M1524.97 529.056C1527.1 528.713 1527.5 528.664 1529.25 527.988M1524.97 529.056C1524.97 529.056 1523.22 531.046 1521.12 531.722C1516.01 533.37 1510.07 532.035 1508.4 526.928C1507.98 525.634 1507.7 524.401 1507.71 523.402C1507.74 518.698 1511.47 514.921 1516.17 514.828L1520.41 514.828M1520.41 514.828C1523.3 513.028 1526.18 511.846 1528.87 511.057C1529.39 510.905 1529.92 510.887 1530.44 510.985M1529.25 527.988C1529.25 527.988 1528.88 532.51 1526.34 534.552C1523.13 537.14 1519.56 537.863 1516.17 537.403C1508.89 536.415 1503.53 530.748 1503.61 523.402C1503.69 516.144 1507.86 510.575 1515.09 509.858C1522.31 509.141 1522.24 513.473 1522.53 513.769M1529.9 278.157L1532.83 278.157L1536.26 326.869M1529.9 278.157L1529.47 268.117C1529.35 265.383 1531.54 263.103 1534.27 263.103L1603.31 263.103C1606.09 263.103 1609.11 263.465 1610.99 265.504C1611.57 266.131 1612.11 267.083 1612.51 267.864C1612.95 268.741 1613.18 269.705 1613.27 270.683L1616.39 304.197M1548.16 585.757C1554.15 582.786 1560.24 580.06 1568.54 577.314C1582.69 572.633 1605.84 569.222 1605.84 569.222C1605.84 569.222 1634.98 565.369 1652.98 569.222C1668.46 572.535 1677.44 575.678 1690.45 584.702C1708.42 597.166 1732.67 616.19 1732.67 616.19C1732.67 616.19 1765.5 639.297 1787.38 652.78C1809.62 666.481 1822.16 674.184 1845.61 685.682C1867.39 696.359 1883.21 701.991 1906.19 709.739C1925 716.079 1935.56 719.138 1953.87 722.35C1965.37 724.368 1973 725.093 1982.34 725.439M1548.16 585.757C1548.16 585.757 1574.96 578.323 1592.6 577.397C1607.02 576.639 1615.53 575.876 1629.51 579.486C1665.65 588.816 1717.32 631.557 1717.32 631.557C1717.32 631.557 1777.16 671.751 1822.62 691.39C1864.09 709.304 1890.21 724.576 1935.3 727.14C1954.42 728.226 1982.34 725.439 1982.34 725.439M1908.51 70.5654C1909.66 70.1852 1910.9 69.9207 1912.22 69.7803C1921.16 68.834 1928.75 75.4704 1930.38 84.1409C1930.99 87.3924 1930.23 90.6542 1928.57 93.4509M1908.51 70.5654C1902.7 72.4922 1899.26 77.3888 1898.95 84.1409C1898.49 93.9087 1907.59 102.648 1917.27 101.211C1919.31 100.908 1921.27 100.157 1923.02 99.0747M1908.51 70.5654C1908.51 70.5654 1906.47 70.8225 1904.11 71.7205M1899.27 74.6575C1894.82 79.0883 1894.59 84.3931 1896.24 90.4538C1897.97 96.8048 1901.44 100.733 1907.67 102.837C1914.32 105.079 1923.02 99.0747 1923.02 99.0747M1899.27 74.6575C1899.27 74.6575 1890.91 79.0603 1888.65 84.1409C1885.23 91.8266 1887.86 99.2687 1894.01 105.005C1898.98 109.628 1903.95 111.466 1910.6 110.153C1917.57 108.775 1924.32 98.1854 1924.32 98.1854M1899.27 74.6575C1900.66 73.2815 1902.46 72.3457 1904.11 71.7205M1923.02 99.0747C1923.47 98.7991 1923.9 98.5021 1924.32 98.1854M1924.32 98.1854C1926.03 96.8909 1927.49 95.2692 1928.57 93.4509M1904.11 71.7205C1904.11 71.7205 1894.3 70.4234 1888.65 72.5567C1885.99 73.5626 1883.58 76.0112 1881.56 78.785C1876.52 85.7166 1876.88 94.9617 1879.65 103.071C1881.52 108.528 1885.62 112.994 1890.92 115.283L1893.92 116.582C1899.51 118.997 1905.76 119.424 1911.63 117.792L1913.36 117.309C1918.62 115.847 1923.09 112.374 1925.81 107.642C1927.62 104.494 1928.57 100.926 1928.57 97.295L1928.57 93.4509M1958.05 160.975C1959.19 160.595 1960.43 160.33 1961.76 160.19C1970.7 159.244 1979.13 165.88 1980.75 174.551C1981.36 177.802 1980.6 181.064 1978.94 183.861M1958.05 160.975C1952.23 162.902 1949.22 166.535 1948.91 173.287C1948.45 183.055 1957.97 193.154 1967.64 191.716C1969.68 191.413 1971.64 190.662 1973.39 189.58M1958.05 160.975C1958.05 160.975 1956.01 161.232 1953.64 162.13M1949.65 165.163C1945.19 169.594 1944.64 173.97 1946.29 180.03C1948.03 186.381 1952.86 189.613 1959.09 191.716C1965.74 193.959 1973.39 189.58 1973.39 189.58M1949.65 165.163C1949.65 165.163 1941.67 167.518 1939.41 172.599C1935.99 180.284 1939.31 188.745 1945.47 194.48C1950.43 199.104 1955.88 200.886 1962.53 199.572C1969.51 198.195 1974.69 188.691 1974.69 188.691M1949.65 165.163C1951.03 163.787 1952 162.756 1953.64 162.13M1973.39 189.58C1973.84 189.304 1974.27 189.007 1974.69 188.691M1974.69 188.691C1976.4 187.396 1977.86 185.679 1978.94 183.861M1953.64 162.13C1953.64 162.13 1946.02 158.842 1940.38 160.975C1936.55 162.42 1930.93 165.39 1928.57 169.476C1925.71 174.416 1926.72 183.816 1928.57 189.215L1929.91 193.149C1931.87 198.85 1936.13 203.462 1941.66 205.853L1942.48 206.205C1949.24 209.13 1956.81 209.647 1963.91 207.671L1964.25 207.575C1969.18 206.205 1973.37 202.951 1975.91 198.518C1977.9 195.064 1978.94 191.151 1978.94 187.168L1978.94 183.861M2083.09 162.13C2092.84 160.788 2101.84 167.412 2102.35 177.241C2102.73 184.388 2099.33 190.302 2093.07 193.021M2083.09 162.13C2082.64 162.192 2082.2 162.267 2081.76 162.354M2083.09 162.13L2081.76 162.354M2081.76 162.354C2074.11 163.887 2068.41 169.324 2067.81 177.241C2067.03 187.483 2077.48 195.72 2087.67 194.48C2089.58 194.249 2091.4 193.75 2093.07 193.021M2081.76 162.354C2081.76 162.354 2080.52 162.063 2078.81 161.873M2093.07 193.021C2093.07 193.021 2089.12 198.029 2085.53 199.572C2079.08 202.353 2073.62 200.446 2067.81 196.493C2061.68 192.32 2058.84 186.429 2058.93 179.012C2059.03 170.339 2064.18 164.478 2072.53 162.13C2074.5 161.578 2076.93 161.665 2078.81 161.873M2093.07 193.021C2091.23 199.81 2091.17 204.545 2085.53 207.714C2078.71 211.55 2067.66 209.802 2060.79 206.036C2052.1 201.27 2048.11 193.48 2046.25 183.858C2044.35 173.939 2047.06 168.87 2054.08 163.542C2057.87 160.672 2060.42 160.613 2064.71 159.815C2070.57 158.724 2078.81 161.873 2078.81 161.873M2030.37 70.2003C2040.12 68.8576 2049.13 75.4822 2049.64 85.3108C2050.01 92.4579 2046.61 98.3722 2040.36 101.091M2030.37 70.2003C2029.93 70.262 2029.48 70.3367 2029.05 70.424M2030.37 70.2003L2029.05 70.424M2029.05 70.424C2027.45 70.7434 2025.94 71.2322 2024.55 71.8776M2022.06 71.8776C2013.71 74.2252 2008.56 80.0865 2008.45 88.7591C2008.36 96.1761 2011.2 102.067 2017.33 106.241C2023.14 110.194 2028.6 112.1 2035.06 109.32C2038.64 107.776 2040.36 101.091 2040.36 101.091M2022.06 71.8776C2022.06 71.8776 2015.53 71.8776 2009.27 71.8776C2003.01 71.8776 1992.95 82.2965 1994.86 92.215C1996.71 101.837 1999.39 109.34 2008.08 114.106C2014.94 117.872 2025.99 119.62 2032.82 115.784C2038.46 112.615 2038.52 107.88 2040.36 101.091M2022.06 71.8776L2024.55 71.8776M2040.36 101.091C2038.68 101.82 2036.86 102.319 2034.96 102.55C2024.76 103.79 2014.32 95.5527 2015.09 85.3108C2015.57 79.0434 2019.24 74.3301 2024.55 71.8776M1775.86 401.71L1774.78 391.352M1949.19 428.712C1949.19 428.712 1948.86 431.305 1947.59 433.279C1945.01 437.267 1940.71 439.045 1936.12 439.145M1949.19 428.712C1949.19 428.712 1946.66 429.241 1943.44 429.918M1949.19 428.712C1954.59 425.592 1957.43 419.391 1956.25 413.264L1953.55 399.191L1928.63 266.582C1927.95 262.958 1926.91 259.412 1925.51 255.997L1922.16 247.768M1936.12 439.145C1930.67 439.263 1924.82 437.011 1921 433.279C1915.4 427.816 1918.03 413.687 1918.03 413.687L1911.57 418.996C1911.19 419.306 1910.94 419.738 1910.88 420.223C1910.6 422.494 1909.99 429.4 1912.23 433.279C1914.45 437.145 1916.75 439.233 1921 440.598C1924.47 441.714 1926.72 441.143 1930.33 440.598C1932.63 440.25 1936.12 439.145 1936.12 439.145ZM1893.46 279.591C1893.46 279.591 1883.01 272.137 1882.56 265.618C1882 257.412 1884.48 251.515 1891.81 247.768C1898.32 244.437 1906.36 243.459 1913.47 245.164C1916.31 245.844 1922.16 247.768 1922.16 247.768M1893.46 279.591C1893.46 279.591 1901.58 325.394 1909.6 369.138M1893.46 279.591L1763.26 280.581M1893.46 279.591L1974.69 280.548M1943.44 429.918C1941.11 430.405 1938.41 431.165 1936.12 430.932C1930.68 430.378 1927.82 430.063 1923.41 425.056C1917.72 418.606 1917.26 410.411 1915.61 401.615C1913.7 391.465 1911.65 380.369 1909.6 369.138M1943.44 429.918C1939.9 429.09 1937.89 428.638 1934.88 426.612C1928.45 422.29 1926.18 414.117 1924.77 406.503L1921.97 391.352M1922.16 247.768C1922.16 247.768 1910.24 245.313 1904.52 247.768C1903.39 248.253 1902.16 249.048 1901.04 249.877C1898.51 251.74 1897.46 254.913 1897.84 258.026L1898.9 266.6L1921.97 391.352M1937.45 400.128L1929.58 400.128C1929.06 400.128 1928.63 399.736 1928.58 399.223L1927.71 390.074C1927.65 389.487 1928.12 388.979 1928.71 388.979L1936.07 388.979M1937.45 400.128L1936.07 388.979M1937.45 400.128L1938.02 403.274C1938.12 403.806 1938.63 404.164 1939.16 404.081L1941.26 403.758M1936.07 388.979L1935.11 384.128C1934.99 383.51 1935.47 382.935 1936.1 382.935L1937.77 382.935M1943.58 399.191L1944.13 402.278C1944.23 402.83 1943.85 403.356 1943.3 403.442L1941.26 403.758M1943.58 399.191L1950.49 399.191C1951.09 399.191 1951.55 398.678 1951.49 398.089L1950.43 387.806C1950.37 387.296 1949.94 386.909 1949.43 386.909L1941.38 386.909M1943.58 399.191L1941.38 386.909M1941.38 386.909L1940.81 383.759C1940.73 383.282 1940.31 382.935 1939.83 382.935L1937.77 382.935M1933.66 376.252L1925.77 376.252C1925.29 376.252 1924.87 375.905 1924.79 375.428L1923.18 366.42C1923.07 365.807 1923.54 365.244 1924.16 365.244L1931.62 365.244M1933.66 376.252L1931.62 365.244M1933.66 376.252L1934.04 378.805C1934.11 379.296 1934.54 379.658 1935.03 379.658L1937.42 379.658M1931.62 365.244L1931.16 360.786C1931.1 360.197 1931.56 359.683 1932.15 359.683L1934.24 359.683M1941.26 403.758L1937.77 382.935M1937.42 379.658L1939.49 379.658C1940.11 379.658 1940.58 379.107 1940.48 378.499L1940.12 376.252M1937.42 379.658L1934.24 359.683M1934.24 359.683L1936.6 359.683C1937.09 359.683 1937.5 360.04 1937.58 360.524L1938.2 364.357M1940.12 376.252L1945.82 376.252C1946.44 376.252 1946.91 375.696 1946.8 375.086L1945.11 365.066C1945.02 364.577 1944.59 364.223 1944.1 364.233L1938.2 364.357M1940.12 376.252L1938.2 364.357M1930.33 353.656L1919.95 353.656C1919.43 353.656 1918.99 353.256 1918.95 352.736L1918.19 343.251C1918.14 342.669 1918.6 342.17 1919.18 342.17L1928.66 342.17M1930.33 353.656L1928.66 342.17M1930.33 353.656L1930.81 355.524C1930.94 356.037 1931.45 356.359 1931.97 356.256L1933.88 355.881M1928.66 342.17L1928.24 339.122C1928.17 338.561 1928.57 338.048 1929.14 337.992L1930.88 337.817M1933.88 355.881L1935.76 355.512C1936.29 355.407 1936.64 354.896 1936.55 354.361L1936.23 352.503M1933.88 355.881L1930.88 337.817M1930.88 337.817L1932.74 337.632C1933.26 337.58 1933.73 337.94 1933.82 338.458L1934.39 341.754M1936.23 352.503L1939.74 352.068C1940.26 352.004 1940.65 351.547 1940.62 351.022L1940.17 342.7C1940.14 342.17 1939.7 341.754 1939.17 341.754L1934.39 341.754M1936.23 352.503L1934.39 341.754M1926.21 330.774L1916.03 330.774C1915.5 330.774 1915.06 330.359 1915.03 329.828L1914.52 320.313C1914.49 319.741 1914.94 319.259 1915.51 319.259L1924.1 319.259M1926.21 330.774L1924.1 319.259M1926.21 330.774L1926.74 332.719C1926.86 333.188 1927.31 333.498 1927.79 333.455L1929.96 333.26M1924.1 319.259L1923.53 314.885C1923.46 314.355 1923.82 313.864 1924.35 313.771L1926.03 313.474M1929.96 333.26L1931.85 333.091C1932.44 333.037 1932.86 332.471 1932.73 331.884L1932.49 330.774M1929.96 333.26L1926.03 313.474M1926.03 313.474L1927.71 313.178C1928.24 313.085 1928.75 313.427 1928.86 313.952L1929.63 317.485M1932.49 330.774L1937.04 330.774C1937.65 330.774 1938.12 330.232 1938.03 329.628L1936.36 318.339C1936.29 317.848 1935.87 317.485 1935.37 317.485L1929.63 317.485M1932.49 330.774L1929.63 317.485M1921.41 308.64L1912.23 308.64C1911.75 308.64 1911.35 308.306 1911.25 307.841L1909.26 298.078C1909.13 297.458 1909.6 296.878 1910.24 296.878L1919.76 296.878M1921.41 308.64L1919.76 296.878M1921.41 308.64L1921.88 310.069C1922.04 310.552 1922.54 310.837 1923.04 310.731L1925.13 310.285M1919.76 296.878L1918.42 291.967C1918.25 291.364 1918.67 290.759 1919.3 290.706L1921.1 290.554M1925.13 310.285L1927.13 309.859C1927.67 309.745 1928.01 309.217 1927.9 308.679L1927.89 308.64M1925.13 310.285L1921.1 290.554M1921.1 290.554L1923.22 290.376C1923.72 290.333 1924.18 290.674 1924.28 291.17L1927.89 308.64M1927.89 308.64L1931.66 307.709C1932.14 307.59 1932.46 307.139 1932.42 306.647L1931.95 301.58M1925.13 295.613L1930.05 295.613C1930.53 295.613 1930.95 295.96 1931.03 296.437L1931.95 301.58M1916.72 285.849L1906.39 285.849C1905.86 285.849 1905.43 285.449 1905.39 284.929L1904.61 275.175C1904.56 274.593 1905.02 274.095 1905.6 274.095L1915.08 274.095M1916.72 285.849L1915.08 274.095M1916.72 285.849L1917.31 287.89C1917.43 288.319 1917.82 288.615 1918.27 288.615L1921.69 288.615C1922.3 288.615 1922.76 288.071 1922.67 287.466L1922.43 285.849M1915.08 274.095L1914.57 269.741C1914.51 269.198 1914.89 268.705 1915.44 268.634L1918.79 268.197C1919.33 268.126 1919.83 268.501 1919.91 269.04L1920.49 272.91M1922.43 285.849L1928.47 285.434C1929.08 285.393 1929.51 284.822 1929.38 284.227L1927.12 273.7C1927.03 273.239 1926.62 272.91 1926.15 272.91L1920.49 272.91M1922.43 285.849L1920.49 272.91M2017.48 413.31C2025.07 412.959 2031.05 419.035 2031.7 426.612C2032.18 432.324 2029.16 437.855 2024.5 440.598M2017.48 413.31L2024.5 440.598M2017.48 413.31C2016.67 413.347 2015.9 413.451 2015.15 413.616M2005.94 421.167C2005.17 422.822 2004.68 424.663 2004.51 426.612C2004.14 430.992 2005.7 435.225 2008.51 438.201M2005.94 421.167L1999.42 423.023L1994.91 424.343M2005.94 421.167C2006.3 420.402 2006.72 419.677 2007.19 418.999M1992.48 425.056L1988.98 425.883C1987.18 426.31 1985.91 427.921 1985.91 429.775L1985.91 433.094C1985.91 435.065 1987.34 436.743 1989.29 437.046L1993.95 437.773M1992.48 425.056L1994.91 424.343M1992.48 425.056C1992.48 425.056 1991.34 411.683 1989.79 394.693M1993.95 437.773L1997.52 437.773L2008.51 438.201M1993.95 437.773C1993.95 437.773 1994.62 440.49 1995.86 441.621C1997.15 442.796 2000.05 443.165 2000.05 443.165M2008.51 438.201C2010.8 440.621 2013.91 442.21 2017.48 442.373C2019.19 442.452 2020.83 442.178 2022.35 441.621M2000.05 437.872C2000.05 437.872 1999.84 441.921 2000.05 443.165M2000.05 443.165C2000.36 445.04 2002.32 446.012 2004.51 447.435C2008.63 450.107 2013.75 450.392 2018.6 449.643L2022.95 448.97C2024.6 448.716 2026.1 447.885 2027.18 446.626L2031.5 441.626C2033.38 439.449 2034.23 436.569 2033.83 433.72L2030.21 407.606M2030.21 407.606L2028.23 404.23M2030.21 407.606L1995.86 407.606M2028.23 404.23C2028.23 404.23 2024.68 357.162 2020.03 327.313C2016.41 304.024 2008.51 268.07 2008.51 268.07M2028.23 404.23L1995.86 404.23M2008.51 268.07L2010 265.882M2008.51 268.07L1977.06 268.07M2010 265.882L2007.58 241.912C2007.26 238.766 2005.81 235.841 2003.5 233.68C2001.39 231.702 1998.67 230.506 1995.8 230.131C1993.12 229.781 1991.02 229.431 1987.28 229.08C1982.14 228.598 1974.35 230.893 1970.35 235.884M2010 265.882L1976.13 265.882M1995.86 418.999L2007.19 418.999M1995.86 418.999L1995.86 407.606M1995.86 418.999L1994.91 424.343M2007.19 418.999C2009.06 416.304 2011.81 414.351 2015.15 413.616M1995.86 407.606L1995.86 404.23M1995.86 404.23C1995.86 404.23 1991.88 357.21 1987.52 327.313C1984.27 305.023 1977.06 268.07 1977.06 268.07M1977.06 268.07L1976.13 265.882M1976.13 265.882L1971.79 264.831M1976.13 265.882C1975.53 265.306 1972.93 265.729 1971.79 264.831M1976.13 265.882L1976.13 262.001C1976.13 260.44 1977.33 259.139 1978.89 259.011L1992.15 257.918M1983.95 237.755C1982.11 240.508 1981.38 243.075 1982.02 246.746C1982.96 252.182 1987.14 256.858 1992.15 257.918M1983.95 237.755L2003.49 253.97M1983.95 237.755C1984.4 237.077 1984.93 236.449 1985.53 235.884M1983.95 237.755L1977.96 240.476C1976.85 240.978 1975.55 240.765 1974.67 239.934L1970.35 235.884M2003.49 253.97C2002.13 256.172 1999.93 256.873 1997.23 257.697C1995.5 258.224 1993.78 258.264 1992.15 257.918M2003.49 253.97C2003.88 253.324 2004.22 252.638 2004.5 251.921M1985.53 235.884C1986.51 234.964 1987.7 234.209 1989.09 233.666C1995.75 231.074 2002.89 236.11 2004.83 242.984C2005.68 246.016 2005.54 249.19 2004.5 251.921M1985.53 235.884L2004.5 251.921M1971.79 264.831C1968.96 262.604 1966.68 257.435 1965.9 255.523C1965.11 253.612 1965.87 242.817 1969.53 237.032C1969.78 236.635 1970.05 236.252 1970.35 235.884M1971.79 264.831C1971.79 264.831 1972.99 271.112 1974.69 280.548M1985.18 347.601L1925.13 346.43L1817.99 346.43L1562.48 346.43L1347.51 349.913L1088 349.913M1985.18 347.601C1985.93 354.553 1986.74 362.5 1987.52 370.593M1985.18 347.601C1984.44 340.811 1983.32 332.729 1982.05 324.318M2024.5 440.598C2023.82 441.002 2023.1 441.346 2022.35 441.621M2015.15 413.616L2022.35 441.621M90.7456 403.185C95.9645 407.143 101.672 406.32 106.245 402.28C110.077 398.894 111.223 395.148 110.821 390.411C110.271 383.94 105.93 379.36 99.4593 379.921C95.3061 380.282 90.7456 384.433 90.7456 384.433M90.7456 403.185L88.5305 397.27M90.7456 384.433C92.2868 385.896 93.164 388.089 93.0849 390.411C92.9787 393.532 91.2552 396.262 88.5305 397.27M90.7456 384.433C90.7456 384.433 95.9334 386.68 95.9645 390.411C96.0004 394.729 88.5305 397.27 88.5305 397.27M90.7456 384.433L95.3978 384.433M88.5305 397.27L94.2902 397.27M94.2902 397.27L95.7835 397.27C98.5089 397.27 101.253 396.226 102.568 393.838C103.174 392.737 103.633 391.517 103.569 390.411C103.516 389.495 103.095 388.513 102.561 387.616C101.23 385.376 98.5917 384.433 95.9858 384.433L95.3978 384.433M94.2902 397.27C94.2902 397.27 99.0657 393.595 99.0042 390.411C98.9527 387.745 95.3978 384.433 95.3978 384.433M95.3978 384.433L191.988 374.792L333.87 360.314M93.8431 332.356C89.8014 332.664 86.5577 329.155 86.4179 325.104C86.2732 320.909 89.6579 317.016 93.8431 317.333C95.4396 317.454 96.8164 318.117 97.8782 319.125M93.8431 332.356C93.8431 332.356 93.9012 336.51 96.1499 338.216C101.369 342.174 108.48 342.904 113.053 338.864C116.886 335.479 117.715 329.84 117.313 325.104C116.764 318.632 110.533 316.771 104.063 317.333C99.9098 317.694 97.8782 319.125 97.8782 319.125M93.8431 332.356C94.4892 332.307 95.0977 332.172 95.663 331.962M93.8431 332.356L95.4175 333.214C97.0322 334.094 98.8416 334.555 100.68 334.555L244.708 334.555L413.08 335.248M97.8782 319.125C99.4194 320.589 100.297 322.781 100.217 325.104C100.111 328.225 98.3878 330.954 95.663 331.962M97.8782 319.125C97.8782 319.125 103.066 321.372 103.097 325.104C103.133 329.421 95.663 331.962 95.663 331.962M97.8782 319.125L102.53 319.125M95.663 331.962L101.423 331.962M101.423 331.962C101.423 331.962 106.198 328.287 106.137 325.104C106.085 322.437 102.53 319.125 102.53 319.125M101.423 331.962C105.102 331.962 109.049 330.627 110.33 327.177C110.589 326.479 110.741 325.77 110.702 325.104C110.659 324.359 110.373 323.572 109.981 322.821C108.6 320.177 105.513 319.125 102.53 319.125M163.529 399.704C159.488 400.012 156.244 396.502 156.104 392.451C155.959 388.256 159.344 384.363 163.529 384.681C165.126 384.802 166.503 385.464 167.564 386.472M163.529 399.704C163.529 399.704 165.316 403.519 167.564 405.225C172.783 409.183 178.491 408.359 183.064 404.319C186.896 400.934 188.041 397.187 187.639 392.451C187.09 385.98 182.749 381.399 176.278 381.961C172.125 382.321 167.564 386.472 167.564 386.472M163.529 399.704C164.175 399.654 164.784 399.519 165.349 399.31M163.529 399.704L152.869 399.704M167.564 386.472C169.106 387.936 169.983 390.128 169.904 392.451C169.797 395.572 168.074 398.301 165.349 399.31M167.564 386.472C167.564 386.472 172.752 388.719 172.783 392.451C172.819 396.769 165.349 399.31 165.349 399.31M167.564 386.472L172.217 386.472M165.349 399.31L171.109 399.31M171.109 399.31C171.109 399.31 175.885 395.635 175.823 392.451C175.772 389.784 172.217 386.472 172.217 386.472M171.109 399.31C174.788 399.31 178.735 397.974 180.016 394.525C180.275 393.826 180.427 393.118 180.388 392.451C180.345 391.707 180.059 390.919 179.667 390.169C178.287 387.525 175.2 386.472 172.217 386.472M172.217 386.472L255.713 380.325L409.674 369.138M239.243 400.239C235.202 400.548 231.958 397.038 231.818 392.987C231.673 388.792 235.058 384.899 239.243 385.216C240.84 385.337 242.217 386 243.278 387.008M239.243 400.239C239.243 400.239 241.03 404.055 243.278 405.76C248.497 409.718 254.205 408.895 258.778 404.855C262.61 401.47 263.755 397.723 263.353 392.987C262.804 386.515 258.462 381.935 251.992 382.497C247.839 382.857 243.278 387.008 243.278 387.008M239.243 400.239C239.889 400.19 240.498 400.055 241.063 399.846M243.278 387.008C244.82 388.472 245.697 390.664 245.618 392.987C245.511 396.108 243.788 398.837 241.063 399.846M243.278 387.008C243.278 387.008 248.466 389.255 248.497 392.987C248.533 397.305 241.063 399.846 241.063 399.846M243.278 387.008L247.93 387.008M241.063 399.846L246.823 399.846M246.823 399.846C246.823 399.846 251.598 396.171 251.537 392.987C251.485 390.32 247.93 387.008 247.93 387.008M246.823 399.846C250.502 399.846 254.449 398.51 255.73 395.061C255.989 394.362 256.141 393.654 256.102 392.987C256.059 392.243 255.773 391.455 255.381 390.705C254 388.06 250.913 387.008 247.93 387.008M247.93 387.008L327.98 387.008L407.877 387.008M170.149 323.53C166.107 323.838 162.864 320.329 162.724 316.278C162.579 312.083 165.964 308.19 170.149 308.507C171.746 308.628 173.122 309.291 174.184 310.299M170.149 323.53C170.149 323.53 170.207 327.684 172.456 329.39C177.675 333.348 184.786 334.078 189.359 330.038C193.191 326.653 194.021 321.014 193.619 316.278C193.07 309.806 186.839 307.946 180.369 308.507C176.216 308.868 174.184 310.299 174.184 310.299M170.149 323.53C170.795 323.481 171.404 323.346 171.969 323.136M170.149 323.53L199.954 325.767L415.618 319.868L511.048 318.764M174.184 310.299C175.725 311.763 176.603 313.955 176.523 316.278C176.417 319.399 174.694 322.128 171.969 323.136M174.184 310.299C174.184 310.299 179.372 312.546 179.403 316.278C179.439 320.595 171.969 323.136 171.969 323.136M174.184 310.299L178.836 310.299M171.969 323.136L177.729 323.136M177.729 323.136C177.729 323.136 182.504 319.462 182.443 316.278C182.391 313.611 178.836 310.299 178.836 310.299M177.729 323.136C181.408 323.136 185.355 321.801 186.636 318.351C186.895 317.653 187.047 316.944 187.008 316.278C186.965 315.533 186.679 314.746 186.287 313.995C184.906 311.351 181.819 310.299 178.836 310.299M249.338 316.037C245.297 316.345 242.053 312.836 241.913 308.785C241.768 304.59 245.153 300.697 249.338 301.014C250.935 301.135 252.312 301.798 253.373 302.806M249.338 316.037C249.338 316.037 249.396 320.191 251.645 321.897C256.864 325.855 263.468 324.711 268.041 320.671C271.873 317.286 272.308 313.521 271.906 308.785C271.357 302.313 266.029 300.452 259.558 301.014C255.405 301.375 253.373 302.806 253.373 302.806M249.338 316.037C249.984 315.988 250.593 315.853 251.158 315.643M249.338 316.037L263.256 316.965L416.239 303.823M253.373 302.806C254.915 304.27 255.792 306.462 255.713 308.785C255.607 311.906 253.883 314.635 251.158 315.643M253.373 302.806C253.373 302.806 258.561 305.053 258.592 308.785C258.628 313.102 251.158 315.643 251.158 315.643M253.373 302.806L258.026 302.806M251.158 315.643L256.918 315.643M256.918 315.643C256.918 315.643 261.694 311.968 261.632 308.785C261.581 306.118 258.026 302.806 258.026 302.806M256.918 315.643C260.597 315.643 264.544 314.308 265.825 310.858C266.084 310.16 266.236 309.451 266.197 308.785C266.154 308.04 265.868 307.253 265.476 306.502C264.096 303.858 261.009 302.806 258.026 302.806M333.87 360.314L411.361 352.346M411.361 352.346L419.172 352.346M411.361 352.346L409.674 369.138M411.361 352.346L413.08 335.248M419.172 352.346L619.714 352.346L735.832 352.346M735.832 352.346L1088 349.913M409.674 369.138L600.235 369.138L905.688 369.138L1186.47 369.138M1186.47 369.138L1460.88 369.138M1460.88 369.138L1667.47 369.138L1909.6 369.138M1909.6 369.138L1987.52 370.593M1987.52 370.593C1988.32 378.768 1989.09 387.093 1989.79 394.693M407.877 387.008L523.913 387.008L719.404 387.008L896.603 387.008L1142.04 388.498M1142.04 388.498L1368.38 390.044L1544.39 390.044M1544.39 390.044L1545.97 409.922C1546.04 410.769 1546.37 411.576 1546.9 412.235C1547.7 413.212 1548.89 413.778 1550.15 413.778L1617.66 413.778C1618.8 413.778 1619.91 413.422 1620.84 412.758C1622.42 411.631 1623.28 409.754 1623.11 407.822L1611.13 272.048C1611.04 271.056 1610.58 270.132 1609.85 269.457L1608.68 268.384C1607.95 267.704 1606.98 267.327 1605.98 267.327L1539.52 267.327C1538.51 267.327 1537.54 267.706 1536.8 268.389L1536.27 268.876C1535.37 269.709 1534.9 270.909 1535 272.132L1536.03 285.037M1544.39 390.044L1774.78 391.352M1544.39 390.044L1536.03 285.037M1774.78 391.352L1921.97 391.352M1774.78 391.352L1767.81 324.318M1921.97 391.352L1989.79 394.693M413.08 335.248L592.541 333.071M592.541 333.071L741.581 333.071M741.581 333.071L989.592 330.735M989.592 330.735L1265.81 328.913M1265.81 328.913L1401.53 326.869M1401.53 326.869L1536.26 326.869M1536.26 326.869L1618.36 325.458M1618.36 325.458L1767.81 324.318M1618.36 325.458L1616.39 304.197M1767.81 324.318L1982.05 324.318M1767.81 324.318L1763.26 280.581M1982.05 324.318C1980.97 317.236 1979.78 309.92 1978.61 302.944M511.048 318.764L684.751 315.593L841.293 313.987L995.157 312.202L1182.04 309.703L1271.29 308.275L1489.96 306.133L1616.39 304.197M1616.39 304.197L1783.49 301.58M1783.49 301.58L1795.06 407.329C1795.31 409.63 1796.55 411.709 1798.45 413.029L1799.48 413.745C1800.87 414.708 1802.52 415.207 1804.21 415.173L1873.74 413.744C1875.54 413.707 1877.28 413.066 1878.68 411.923C1880.84 410.149 1881.94 407.379 1881.56 404.604L1863.31 269.065C1863.18 268.125 1862.85 267.224 1862.35 266.423C1861.14 264.518 1859.04 263.363 1856.79 263.363L1784.65 263.363C1783.78 263.363 1782.92 263.599 1782.17 264.046C1780.49 265.042 1779.57 266.941 1779.83 268.873L1780.24 271.914L1783.49 301.58ZM1783.49 301.58L1931.95 301.58M1931.95 301.58L1978.61 302.944M1978.61 302.944C1977.21 294.684 1975.84 286.901 1974.69 280.548M416.239 303.823L869.016 296.066M869.016 296.066L1038.26 294.266M1038.26 294.266L1331.29 287.507M1331.29 287.507L1536.03 285.037M1536.03 285.037L1763.26 280.581M1769.24 250.026L1789.26 432.421C1789.43 433.953 1790.08 435.391 1791.12 436.527C1792.49 438.024 1794.43 438.876 1796.46 438.876L1881.59 438.876C1884.32 438.876 1886.69 437.016 1887.35 434.368C1887.53 433.649 1887.57 432.902 1887.47 432.167L1863.63 250.391C1863.31 247.949 1861.85 245.804 1859.69 244.611C1858.52 243.961 1857.2 243.626 1855.86 243.638L1774.44 244.321C1771.38 244.347 1768.98 246.973 1769.24 250.026ZM1888.4 264.524C1888.4 264.524 1886.13 257.431 1888.4 253.083C1890.63 248.792 1901.35 247.768 1901.35 247.768C1901.35 247.768 1893.77 251.915 1891.81 255.533C1889.64 259.521 1888.4 264.524 1888.4 264.524Z" stroke="#838C94"/>
<circle cx="1448.33" cy="582.479" r="7.13072" transform="rotate(-90 1448.33 582.479)" stroke="#838C94"/>
<circle cx="1479.69" cy="430.885" r="7.13072" transform="rotate(-90 1479.69 430.885)" stroke="#838C94"/>
<circle cx="1564.67" cy="396.143" r="6.02098" transform="rotate(-90 1564.67 396.143)" stroke="#838C94"/>
<circle cx="1563" cy="372.604" r="6.02098" transform="rotate(-90 1563 372.604)" stroke="#838C94"/>
<circle cx="1561.11" cy="351.151" r="6.02098" transform="rotate(-90 1561.11 351.151)" stroke="#838C94"/>
<circle cx="1558.65" cy="327.612" r="6.02098" transform="rotate(-90 1558.65 327.612)" stroke="#838C94"/>
<circle cx="1556.97" cy="306.167" r="6.02098" transform="rotate(-90 1556.97 306.167)" stroke="#838C94"/>
<circle cx="1555.08" cy="284.706" r="6.02098" transform="rotate(-90 1555.08 284.706)" stroke="#838C94"/>
<circle cx="1469.71" cy="255.065" r="7.13072" transform="rotate(-90 1469.71 255.065)" stroke="#838C94"/>
<circle cx="1469.71" cy="337.994" r="7.13072" transform="rotate(-90 1469.71 337.994)" stroke="#838C94"/>
<circle cx="1415.14" cy="337.994" r="7.13072" transform="rotate(-90 1415.14 337.994)" stroke="#838C94"/>
<circle cx="1352.81" cy="337.994" r="7.13072" transform="rotate(-90 1352.81 337.994)" stroke="#838C94"/>
<circle cx="1282.51" cy="337.994" r="7.13072" transform="rotate(-90 1282.51 337.994)" stroke="#838C94"/>
<circle cx="1159.67" cy="310.869" r="7.13072" transform="rotate(-90 1159.67 310.869)" stroke="#838C94"/>
<circle cx="1014.78" cy="341.697" r="7.13072" transform="rotate(-90 1014.78 341.697)" stroke="#838C94"/>
<circle cx="900.049" cy="341.697" r="7.13072" transform="rotate(-90 900.049 341.697)" stroke="#838C94"/>
<circle cx="772.724" cy="341.697" r="7.13072" transform="rotate(-90 772.724 341.697)" stroke="#838C94"/>
<circle cx="628.525" cy="344.268" r="7.13072" transform="rotate(-90 628.525 344.268)" stroke="#838C94"/>
<circle cx="1159.67" cy="371.072" r="7.13072" transform="rotate(-90 1159.67 371.072)" stroke="#838C94"/>
<circle cx="1418.4" cy="113.455" r="7.13072" transform="rotate(-90 1418.4 113.455)" stroke="#838C94"/>
<circle cx="1612.28" cy="163.83" r="7.13072" transform="rotate(-90 1612.28 163.83)" stroke="#838C94"/>
<circle cx="1824.63" cy="127.713" r="7.13072" transform="rotate(-90 1824.63 127.713)" stroke="#838C94"/>
<circle cx="1776.56" cy="215.94" r="7.13072" transform="rotate(-90 1776.56 215.94)" stroke="#838C94"/>
<ellipse cx="1796.54" cy="431.286" rx="5.15915" ry="4.8035" transform="rotate(-90 1796.54 431.286)" stroke="#838C94"/>
<ellipse cx="1880.82" cy="431.286" rx="5.15915" ry="4.8035" transform="rotate(-90 1880.82 431.286)" stroke="#838C94"/>
<ellipse cx="1838.18" cy="425.264" rx="3.61849" ry="3.53396" transform="rotate(-90 1838.18 425.264)" stroke="#838C94"/>
<ellipse cx="1817.5" cy="254.913" rx="3.61849" ry="3.53396" transform="rotate(-90 1817.5 254.913)" stroke="#838C94"/>
<ellipse cx="1776.55" cy="251.302" rx="5.15915" ry="4.8035" transform="rotate(-90 1776.55 251.302)" stroke="#838C94"/>
<ellipse cx="1857.42" cy="249.255" rx="5.15915" ry="4.8035" transform="rotate(-90 1857.42 249.255)" stroke="#838C94"/>
<circle cx="1757.08" cy="434.455" r="7.13072" transform="rotate(-90 1757.08 434.455)" stroke="#838C94"/>
<circle cx="1703" cy="540.549" r="7.13072" transform="rotate(-90 1703 540.549)" stroke="#838C94"/>
<circle cx="1570.7" cy="255.066" r="3.56684" transform="rotate(-90 1570.7 255.066)" stroke="#838C94"/>
<circle cx="1584.95" cy="427.324" r="3.56684" transform="rotate(-90 1584.95 427.324)" stroke="#838C94"/>
<path d="M1940.83 424.924C1941.51 425.141 1942.23 425.258 1942.99 425.258C1946.9 425.258 1950.08 422.081 1950.08 418.163C1950.08 415.895 1949.02 413.876 1947.36 412.577M1940.83 424.924C1937.97 424.012 1935.89 421.329 1935.89 418.163C1935.89 414.244 1939.07 411.067 1942.99 411.067C1944.64 411.067 1946.16 411.631 1947.36 412.577M1940.83 424.924C1940.83 424.924 1941.46 420.076 1942.99 417.449C1944.27 415.237 1947.36 412.577 1947.36 412.577" stroke="#838C94"/>
<path d="M1906.38 262.083C1907.56 262.94 1909 263.445 1910.56 263.445C1914.48 263.445 1917.66 260.269 1917.66 256.35C1917.66 253.977 1916.49 251.875 1914.7 250.587M1906.38 262.083C1904.62 260.792 1903.47 258.705 1903.47 256.35C1903.47 252.431 1906.65 249.255 1910.56 249.255C1912.11 249.255 1913.54 249.749 1914.7 250.587M1906.38 262.083C1906.38 262.083 1910.32 258.978 1912.06 256.35C1913.42 254.284 1914.7 250.587 1914.7 250.587" stroke="#838C94"/>
</svg>
