<svg width="2242" height="763" viewBox="0 0 2242 763" fill="none" xmlns="http://www.w3.org/2000/svg">
<path d="M1832.25 422.238L1840.39 422.238M1832.25 422.238L1752.12 424.085M1832.25 422.238L1832.25 413.321M2188.23 480.809C2182.77 480.972 2174.3 479.689 2174.3 479.689C2174.3 479.689 2161.48 467.446 2151.83 461.663C2142.62 456.146 2136.5 452.741 2125.85 451.474C2119.02 450.663 2113.65 450.339 2108.86 450.344M2188.23 480.809C2189.85 480.761 2191.82 480.567 2193.6 480.354C2196.77 479.974 2199.82 478.983 2202.61 477.422C2209.96 473.296 2224.92 464.033 2231.32 453.748C2238.2 442.689 2240.07 423.834 2240.53 417.379C2240.63 415.881 2240.54 414.387 2240.3 412.904L2239.53 408.091C2238.1 399.164 2231.78 391.797 2223.17 389.032L2198.37 381.064L2197.59 380.823M2188.23 480.809C2188.23 480.809 2180.09 472.587 2174.3 468.004C2167.7 462.791 2163.93 459.752 2156.35 456.131C2148.03 452.164 2142.9 450.519 2133.77 449.319C2124.11 448.051 2108.86 450.344 2108.86 450.344M1888.3 288.775C1888.3 288.775 1897.58 289.054 1904.06 290.552C1910.24 291.98 1913.66 292.971 1919.79 294.586C1924.25 295.759 1928.94 297.051 1933.78 298.426M1888.3 288.775L1884.54 288.773C1877.44 288.767 1870.77 292.191 1866.63 297.965L1849.28 322.206M1888.3 288.775C1888.3 288.775 1882.7 291.938 1879.58 294.586C1872.64 300.474 1871.51 307.767 1864.64 313.726C1858.34 319.187 1849.28 322.206 1849.28 322.206M1849.28 322.206L1840.39 322.206M1840.39 322.206L1832.25 322.057M1840.39 322.206L1840.39 381.733M2108.86 450.344C2099.33 450.355 2092.1 451.667 2080.35 453.046C2062.96 455.087 2038.33 461.731 2026.76 465.029C2022.49 466.245 2018.01 466.47 2013.66 465.609M2013.66 465.609L2012.52 465.386C2008.87 464.663 2005.3 463.564 2001.87 462.105L1973.19 449.913L1936.89 436.191C1936.89 436.191 1932.5 434.768 1926.15 432.876M2013.66 465.609C2013.66 465.609 2009.66 466.954 2007.02 466.92C2003.49 466.874 1998.35 464.299 1998.35 464.299L1926.15 432.876M1926.15 432.876C1917.14 430.189 1904.19 426.555 1894.33 424.714C1884.15 422.812 1869.54 422.238 1869.54 422.238L1840.39 422.238M926.811 306.042C926.811 306.042 918.584 305.569 911.896 300.6M926.811 306.042L953.386 306.482M926.811 306.042L923.285 306.042M899.679 663.394C899.679 663.394 906.815 647.151 897.442 636.545C879.832 616.62 847.52 624.255 822.39 606.5C792.512 585.39 772.32 568.853 766.268 532.775C761.068 501.769 764.491 476.114 788.022 455.265C796.618 447.649 807.658 441.61 812.366 439.195M814.658 438.055C814.658 438.055 813.809 438.455 812.366 439.195M814.658 438.055L822.148 437.948M814.658 438.055L799.263 438.055M1079.74 434.341L1120.15 433.767M1079.74 434.341L1079.74 308.669M1079.74 434.341L1074.99 434.408M812.366 439.195C812.366 439.195 791.12 446.068 780.777 455.265C766.865 467.636 762.212 479.034 758.083 497.187C753.586 516.958 755.254 529.816 761.919 548.966C769.632 571.13 779.734 582.153 797.717 597.231C812.87 609.935 822.773 614.686 841.039 622.261C857.086 628.917 878.082 630.038 892.343 640.53C897.96 644.662 899.679 652.861 899.679 658.189C899.679 674.054 893.634 679.198 885.108 687.267C876.583 695.335 858.233 701.967 834.516 707.316C771.766 721.469 714.924 697.547 658.234 673.721C623.359 659.063 616.78 647.123 580.918 643.133C562.39 641.072 528.472 652.269 528.472 652.269L379.556 724.663C379.556 724.663 269.465 772.031 197.817 760.05C173.868 756.045 153.856 753.082 130.923 741.51C109.167 730.532 93.0769 717.586 74.4518 696.367C49.0117 667.384 44.8528 649.47 28.9525 608.723C12.0661 565.449 4.90073 489.716 4.90073 489.716C4.90073 489.716 -0.434971 420.029 0.641657 373.466C1.7146 327.061 9.32772 254.926 9.32772 254.926C9.32772 254.926 28.4809 105.411 97.9556 51.2881C136.854 20.9849 156.756 6.15947 216.676 1.56969C286.283 -3.76206 352.69 11.2611 417.52 37.1594C445.819 48.4646 487.921 70.8192 487.921 70.8192L562.701 98.7038C562.701 98.7038 601.898 112.136 630.002 110.451C654.319 108.993 695.128 94.0898 695.128 94.0898C695.128 94.0898 822.883 30.5713 869.722 32.4962C897.762 33.6485 918.912 33.9618 940.622 51.745C957.675 65.7137 966.029 79.4227 969.744 103.073C971.122 111.845 972.425 129.858 972.425 129.858M911.896 300.6C908.839 298.328 906.388 295.396 905.739 291.676C903.391 278.219 926.102 239.728 939.388 218.659C945.405 209.116 950.965 199.3 955.668 189.045L957.743 184.521L964.267 170.297C966.01 166.498 967.453 162.573 968.377 158.496C969.927 151.663 972.163 140.183 972.425 129.858M911.896 300.6C911.896 300.6 911.832 294.216 911.896 289.038C912.032 278.068 919.387 263.857 925.815 253.497C931.707 244.002 937.9 234.661 943.06 224.749L965.161 182.298C965.161 182.298 972.934 163.899 973.822 151.399C974.419 142.99 972.425 129.858 972.425 129.858M834.717 306.042L842.107 292.437L863.468 257.701C864.825 255.495 865.543 252.957 865.543 250.367L865.543 244.798C865.543 242.903 865.036 241.041 864.075 239.407L863.477 238.391C861.554 235.122 858.402 232.758 854.724 231.828C851.287 230.959 847.665 231.177 844.357 232.451L828.374 238.607C828.374 238.607 814.178 243.369 804.755 245.565C778.794 251.616 748.608 249.486 720.898 248.677C701.139 248.101 697.451 245.759 682.873 243.303C642.513 236.505 623.415 222.151 584.239 210.303C571.295 206.389 564.335 202.745 550.966 200.721C535.549 198.387 522.368 198.853 507.358 203.076C486.803 208.859 475.668 221.137 464.989 237.635C456.343 250.993 455.406 272.856 455.406 272.856L459.359 271.571M834.717 306.042L828.374 305.914M834.717 306.042L852.962 306.042M774.499 438.055C774.499 438.055 762.04 448.427 755.501 457.702C742.497 476.146 736.452 488.026 737.099 513.208C737.554 530.897 736.781 546.782 746.962 565.353C765.441 599.06 792.381 622.009 828.062 636.545C838.725 640.889 853.311 643.586 862.217 644.942C867.447 645.738 872.689 647.239 876.563 650.84C878.495 652.635 880.322 654.778 881.144 656.993C884.384 665.72 873.89 674.915 865.029 680.85C857.988 685.566 849.926 688.405 841.665 690.3C835.195 691.784 827.339 693.418 821.067 694.212C800.986 696.754 789.382 696.168 769.236 694.212C743.033 691.668 703.489 679.318 703.489 679.318L609.322 636.736C603.449 634.08 597.265 632.166 590.875 631.321C583.478 630.344 573.241 629.244 565.511 629.394C542.573 629.839 509.672 643.133 509.672 643.133L393.832 699.535C388.975 701.9 383.779 703.541 378.38 703.759C369.947 704.101 357.184 703.59 351.344 698.123C345.608 692.753 345.644 681.764 346.357 674.797C346.783 670.634 348.43 666.772 350.648 663.222C361.349 646.093 394.879 591.6 409.373 558.491C426.077 520.333 435.176 470.364 435.176 470.364L438.04 469.145M774.499 438.055L793.519 438.055M774.499 438.055L770.803 438.055M828.374 305.914L858.65 257.255C859.847 255.332 860.559 253.148 860.725 250.889L860.958 247.741C861.106 245.734 860.55 243.738 859.385 242.097L858.751 241.204C857.551 239.512 855.868 238.222 853.923 237.503C851.038 236.437 847.861 236.477 844.986 237.57C836.623 240.749 818.208 247.476 804.755 250.408C772.739 257.387 720.898 253.32 720.898 253.32C720.898 253.32 697.6 251.309 682.873 248.677C641.887 241.354 621.985 225.801 582.056 214.004C569.961 210.43 563.472 206.895 550.966 205.267C534.041 203.063 520.549 201.993 504.614 208.109C487.664 214.616 480.368 222.78 471.386 237.635C463.946 249.941 459.359 271.571 459.359 271.571M828.374 305.914L827.215 305.89M459.359 271.571L473.142 272.675C474.638 272.795 476.097 273.211 477.381 273.989C479.134 275.051 481.647 276.718 483.17 278.366C484.336 279.627 485.48 281.482 486.354 283.067C487.459 285.072 487.915 287.35 487.903 289.64L487.8 310.27M768.867 438.055C768.867 438.055 756.464 449.1 750.384 457.702C737.247 476.289 733.807 490.479 732.61 513.208C731.522 533.882 735.044 546.249 743.02 565.353C759.875 605.722 792.025 625.18 826.595 640.53C837.294 645.28 846.782 647.306 853.606 648.143C860.761 649.02 868.217 650.154 874.03 654.418C875.317 655.362 876.371 656.266 876.877 656.993C882.201 664.623 869.02 673.975 860.534 678.946C856.29 681.433 851.68 683.177 846.941 684.495C839.966 686.436 829.214 689.22 821.067 690.386C801.334 693.209 789.862 692.326 770.022 690.386C743.475 687.788 701.972 673.721 701.972 673.721C701.972 673.721 682.529 665.618 673.867 661.702C648.674 650.314 628.947 638.379 600.476 629.16C587.416 624.931 579.235 625.238 565.511 625.551C543.128 626.061 509.672 638.546 509.672 638.546L392.348 695.629C388.947 697.284 385.336 698.486 381.576 698.899C374.259 699.705 361.753 700.352 355.968 696.367C349.773 692.1 350.158 681.78 351.285 674.75C352.047 669.99 354.197 665.636 356.804 661.581C367.894 644.328 399.46 593.891 414.195 556.488C427.312 523.191 438.04 469.145 438.04 469.145M768.867 438.055L770.803 438.055M768.867 438.055L766.874 438.055M438.04 469.145L465.758 470.091C471.029 470.271 476.507 469.526 480.627 466.235C481.297 465.7 481.912 465.138 482.41 464.564C484.007 462.725 485.275 459.778 486.084 457.529C486.824 455.472 487.087 453.287 487.098 451.101L487.193 431.995M1840.39 422.238L1840.39 397.752M1832.25 322.057L1750.7 320.565M1832.25 322.057L1832.25 329.459M1750.7 320.565L1752.12 424.085M1750.7 320.565L1745.06 320.462M1752.12 424.085L1746.24 424.22M1745.06 320.462L1746.24 424.22M1745.06 320.462L1671.91 319.124M1746.24 424.22L1671.91 425.934M1671.91 319.124L1671.91 425.934M1671.91 319.124L1665.78 319.012M1671.91 425.934L1666.78 426.052M1665.78 319.012L1666.78 426.052M1665.78 319.012L1596.88 317.751M1666.78 426.052L1644 426.577L1596.88 427.225M1596.88 317.751L1591.24 317.648M1596.88 317.751L1596.88 397.752L1596.88 400.599M1596.88 427.225L1591.24 427.303M1596.88 427.225L1596.88 400.599M1591.24 317.648L1526.09 316.456M1591.24 317.648L1591.24 343.082M1591.24 427.303L1526.09 428.2M1591.24 427.303L1591.24 418.283M1526.09 316.456L1526.09 428.2M1526.09 316.456L1519.88 316.343M1526.09 428.2L1519.88 428.285M1519.88 316.343L1513.67 316.229L1458.83 315.27M1519.88 316.343L1519.88 381.733M1519.88 428.285L1458.83 429.125M1519.88 428.285L1519.88 381.733M1458.83 315.27L1458.83 429.125M1458.83 315.27L1451.77 315.147M1458.83 429.125L1451.77 429.222M1451.77 315.147L1451.77 429.222M1451.77 315.147L1394.96 314.154M1451.77 429.222L1394.96 430.004M1394.96 314.154L1394.96 430.004M1394.96 314.154L1389.23 314.053M1394.96 430.004L1389.23 430.083M1389.23 314.053L1389.23 430.083M1389.23 314.053L1334.45 313.095M1389.23 430.083L1334.45 430.836M1334.45 313.095L1329.32 313.006M1334.45 313.095L1334.45 421.407M1334.45 430.836L1329.32 430.907M1334.45 430.836L1334.45 421.407M1329.32 313.006L1329.32 430.907M1329.32 313.006L1279.18 312.129M1329.32 430.907L1279.18 431.597M1279.18 312.129L1279.18 431.597M1279.18 312.129L1272.74 312.017M1279.18 431.597L1272.74 431.686M1272.74 312.017L1224.62 311.175M1272.74 312.017L1272.74 321.311M1272.74 431.686L1224.62 432.348M1272.74 431.686L1272.74 321.311M1224.62 311.175L1224.62 432.348M1224.62 311.175L1220.1 311.175M1224.62 432.348L1220.1 432.348M1220.1 311.175L1174.24 310.356M1220.1 311.175L1220.1 338.702M1220.1 432.348L1174.24 432.999M1220.1 432.348L1220.1 361.122M1174.24 310.356L1174.24 432.999M1174.24 310.356L1169.06 310.264M1174.24 432.999L1169.06 433.072M1169.06 310.264L1169.06 433.072M1169.06 310.264L1126.01 309.495M1169.06 433.072L1126.01 433.684M1126.01 309.495L1120.15 309.39M1126.01 309.495L1126.01 381.733M1126.01 433.684L1120.15 433.767M1126.01 433.684L1126.01 381.733M1120.15 309.39L1120.15 433.767M1120.15 309.39L1079.74 308.669M1079.74 308.669L1074.99 308.584M1074.99 308.584L1074.99 434.408M1074.99 308.584L1037.82 307.92M1074.99 434.408L1037.82 434.928M1037.82 307.92L1037.82 434.928M1037.82 307.92L1033.23 307.92M1037.82 434.928L1033.23 434.928M1033.23 307.92L1007.63 307.381L997.834 307.219M1033.23 307.92L1033.23 434.928M1033.23 434.928L997.834 435.435M997.834 307.219L992.669 307.133M997.834 307.219L997.834 403.482M997.834 435.435L992.669 435.509M997.834 435.435L997.834 425.964M992.669 307.133L992.669 435.509M992.669 307.133L959.74 306.587M992.669 435.509L959.74 435.98M959.74 306.587L959.74 435.98M959.74 306.587L953.386 306.482M959.74 435.98L953.386 436.071M953.386 306.482L953.386 338.702M953.386 436.071L923.285 436.501M953.386 436.071L953.386 338.702M923.285 306.042L923.285 436.501M923.285 306.042L919.052 306.042M923.285 436.501L919.052 436.562M919.052 306.042L889.911 306.042M919.052 306.042L919.052 361.122M919.052 436.562L889.911 436.979M919.052 436.562L919.052 361.122M889.911 306.042L889.911 436.979M889.911 306.042L885.393 306.042M889.911 436.979L885.393 437.043M885.393 306.042L885.393 437.043M885.393 306.042L858.057 306.042M885.393 437.043L858.057 437.434M858.057 306.042L858.057 437.434M858.057 306.042L852.962 306.042M858.057 437.434L852.962 437.507M852.962 306.042L852.962 437.507M852.962 437.507L827.215 437.875M827.215 305.89L827.215 437.875M827.215 305.89L822.148 305.788M827.215 437.875L822.148 437.948M822.148 305.788L822.148 437.948M822.148 305.788L799.263 305.326M799.263 305.326L799.263 438.055M799.263 305.326L793.519 305.211M799.263 438.055L793.519 438.055M793.519 305.211L793.519 438.055M793.519 305.211L770.803 304.752M770.803 304.752L770.803 438.055M770.803 304.752L766.874 304.673M766.874 304.673L748.087 304.294C748.087 304.294 747.337 304.345 746.147 304.498M766.874 304.673L766.874 438.055M766.874 438.055L748.087 438.055C748.087 438.055 747.338 438.042 746.147 437.943M746.147 304.498L746.147 437.943M746.147 304.498C745.066 304.638 743.62 304.862 742.043 305.211M746.147 437.943C745.067 437.853 743.622 437.693 742.043 437.407M742.043 305.211C738.781 305.931 734.955 307.181 732.61 309.307C731.422 310.385 730.313 311.976 729.381 313.572M742.043 305.211L742.043 437.407M742.043 437.407C738.8 436.82 734.993 435.707 732.61 433.595C731.472 432.586 730.345 430.965 729.381 429.333M345.099 553.672C356.655 554.176 367.395 561.612 366.797 573.163C366.229 584.141 358.284 591.892 347.302 592.367M345.101 553.676C356.656 554.179 367.397 561.615 366.799 573.166C366.231 584.144 358.286 591.895 347.303 592.371M230.101 602.516C241.656 603.02 252.397 610.456 251.799 622.007C251.231 632.985 243.286 640.736 232.303 641.211M1943.51 301.246L1943.51 298.43M1943.51 301.246C1940.22 300.277 1936.97 299.333 1933.78 298.426M1943.51 301.246C1956.61 305.105 1970.28 309.374 1982.84 313.404M1943.51 298.43L1933.78 295.899M1943.51 298.43L1944.61 297.084C1945.25 296.307 1945.68 295.382 1945.87 294.395L1947.64 284.978M1933.78 295.899L1933.78 298.426M1933.78 295.899L1933.69 295.519C1933.19 293.473 1933.8 291.317 1935.3 289.837L1940.2 284.978M1947.64 284.978L1951.17 284.978C1952.17 284.978 1953.02 284.239 1953.16 283.248L1954.91 270.342C1954.96 270.009 1954.83 269.676 1954.58 269.454L1949.2 264.753C1948.57 264.201 1947.56 264.621 1947.49 265.456C1947.27 267.982 1946.74 272.298 1945.58 275.431C1944.1 279.459 1940.13 284.978 1940.13 284.978L1947.64 284.978ZM1996.49 308.055L1994.55 317.192M1996.49 308.055L2012.09 303.762C2013.1 303.482 2013.9 302.691 2014.18 301.676L2017.05 291.39C2017.34 290.353 2017.06 289.245 2016.28 288.503C2013.74 286.09 2007.78 280.721 2002.81 278.486C1996.34 275.576 1986.35 276.084 1982.46 276.423C1981.44 276.511 1980.57 277.147 1980.13 278.071L1974.61 289.723C1974.08 290.857 1974.3 292.206 1975.18 293.104L1987.48 305.683M1996.49 308.055L1987.48 305.683M1994.55 317.192C2015.91 324.164 2031.74 329.638 2031.74 329.638L2034.12 330.371M1994.55 317.192C1990.8 315.969 1986.88 314.698 1982.84 313.404M1987.48 305.683L1982.84 313.404M2037.71 322.734L2034.12 330.371M2037.71 322.734L2046.39 323.386M2037.71 322.734L2026.77 311.44C2025.97 310.612 2025.71 309.398 2026.11 308.317L2031.08 294.798C2031.48 293.704 2032.48 292.942 2033.64 292.873C2036.58 292.697 2042.32 292.465 2046.39 293.004C2053.88 293.998 2063.04 299.881 2066.52 302.287C2067.42 302.909 2067.87 303.985 2067.72 305.069L2066.15 316.203C2065.99 317.396 2065.12 318.373 2063.96 318.684L2046.39 323.386M2034.12 330.371L2046.39 334.144M2046.39 334.144L2046.39 323.386M2046.39 334.144L2084.44 345.847M2094.58 348.966L2122.18 357.455L2134.88 361.39M2094.58 348.966L2096.41 340.083M2094.58 348.966L2084.44 345.847M2096.41 340.083L2106.84 338.946C2107.79 338.841 2108.64 338.287 2109.12 337.454L2115.63 326.085C2116.17 325.14 2116.16 323.98 2115.56 323.071C2113.66 320.205 2109.21 313.945 2104.78 311.198C2098.99 307.616 2089.61 308.483 2085.96 308.998C2085 309.133 2084.2 309.767 2083.8 310.65L2078.68 321.947C2078.18 323.063 2078.4 324.374 2079.25 325.26L2090.01 336.499M2096.41 340.083L2090.01 336.499M2084.44 345.847L2090.01 336.499M2147.58 365.325L2149.64 358.281M2147.58 365.325L2134.88 361.39M2147.58 365.325L2185.88 377.195M2149.64 358.281L2137.82 354.109M2149.64 358.281L2152.14 352.023M2137.82 354.109L2134.88 361.39M2137.82 354.109L2141.02 349.103L2144.36 342.707M2144.36 342.707L2147.37 329.56C2147.49 329.053 2147.98 328.72 2148.49 328.794L2154.41 329.641C2154.93 329.716 2155.31 330.189 2155.26 330.718L2153.51 350.777C2153.44 351.482 2152.85 352.023 2152.14 352.023M2144.36 342.707C2144.36 342.707 2144.91 346.907 2146.72 349.103C2148.04 350.703 2152.14 352.023 2152.14 352.023M2197.59 380.823L2198.37 372.825M2197.59 380.823L2185.88 377.195M2198.37 372.825L2216.55 365.967C2217.59 365.573 2218.33 364.63 2218.47 363.52L2219.68 353.447C2219.79 352.546 2219.49 351.65 2218.84 351.021C2216.32 348.602 2209.59 342.495 2203.79 340.495C2197.26 338.245 2187.1 339.532 2183.05 340.185C2181.97 340.361 2181.1 341.149 2180.77 342.2L2176.61 355.712C2176.29 356.783 2176.58 357.948 2177.38 358.733L2188.23 369.412M2198.37 372.825L2188.23 369.412M2185.88 377.195L2188.23 369.412M463.681 286.166L287.344 286.166C282.32 286.166 277.524 288.262 274.111 291.949C271.026 295.282 269.313 299.656 269.313 304.197L269.313 410.166M463.681 454.393L463.681 457.304L457.506 460.049C454.949 461.185 452.182 461.772 449.384 461.772L269.313 461.772C269.313 461.772 263.118 461.171 260.376 458.701C256.524 455.23 257.025 445.854 257.025 445.854L257.025 429.647M463.681 454.393L463.681 283.851L456.278 281.982C454.518 281.538 452.71 281.313 450.895 281.313L280.442 281.313C275.901 281.313 271.329 282.036 267.41 284.329C264.756 285.881 261.914 287.943 260.376 290.304C257.718 294.383 257.025 302.312 257.025 302.312L257.025 316.656M463.681 454.393L283.555 454.393C280.882 454.393 278.262 453.641 275.996 452.222C271.838 449.618 269.313 445.057 269.313 440.151L269.313 410.166M257.025 316.656L299.366 316.656L299.366 327.043L257.025 327.043M257.025 316.656L257.025 327.043M257.025 327.043L257.025 367.071M301.123 367.071L257.025 367.071M301.123 367.071L301.123 378.218M301.123 367.071L301.123 348.526C301.123 347.945 301.616 347.486 302.195 347.528L322.451 348.994M257.025 367.071L257.025 378.218M301.123 378.218L257.025 378.218M301.123 378.218L301.123 396.584C301.123 397.121 301.547 397.562 302.084 397.583L322.048 398.371M257.025 378.218L257.025 418.247M303.927 418.247L257.025 418.247M303.927 418.247L303.927 429.647M303.927 418.247L303.927 401.513C303.927 400.961 304.374 400.513 304.927 400.513L324.395 400.513M257.025 418.247L257.025 429.647M303.927 429.647L257.025 429.647M303.927 429.647L304.792 449.466C304.815 450.001 305.256 450.423 305.791 450.423L324.395 450.423M322.451 298.64L324.495 298.778C325.02 298.813 325.428 299.249 325.428 299.775L325.428 346.4C325.428 346.971 324.95 347.427 324.378 347.398L322.451 347.302M322.451 298.64L322.451 320.106M322.451 298.64L319.279 298.427M322.451 320.106L337.738 320.106C338.29 320.106 338.738 320.554 338.738 321.106L338.738 324.7C338.738 325.252 338.29 325.7 337.738 325.7L322.451 325.7M322.451 320.106L319.279 320.106M322.451 325.7L322.451 347.302M322.451 325.7L319.279 325.7M322.451 347.302L319.279 347.302M319.279 298.427L301.111 297.204C300.539 297.166 300.052 297.615 300.044 298.188L299.38 345.195C299.372 345.73 299.788 346.176 300.322 346.207L319.279 347.302M319.279 298.427L319.279 320.106M319.279 320.106L314.226 320.106L314.226 325.7L319.279 325.7M319.279 325.7L319.279 347.302M325.428 349.21L328.397 349.424C328.919 349.462 329.324 349.897 329.324 350.422L329.324 397.618C329.324 398.186 328.852 398.639 328.285 398.617L325.428 398.504M325.428 349.21L325.428 371.597M325.428 349.21L322.451 348.994M325.428 371.597L337.738 371.597C338.29 371.597 338.738 372.044 338.738 372.597L338.738 375.532C338.738 376.084 338.29 376.532 337.738 376.532L325.428 376.532M325.428 371.597L322.451 371.597M325.428 376.532L325.428 398.504M325.428 376.532L322.048 376.532M325.428 398.504L322.048 398.371M322.451 348.994L322.451 371.597M322.451 371.597L318.668 371.597L318.668 376.532L322.048 376.532M322.048 376.532L322.048 398.371M327.863 400.513L331.263 400.513C331.827 400.513 332.279 400.98 332.262 401.543L330.837 449.452C330.821 449.993 330.378 450.423 329.838 450.423L327.863 450.423M327.863 400.513L327.863 423.251M327.863 400.513L324.395 400.513M327.863 423.251L336.915 423.251C337.468 423.251 337.915 423.699 337.915 424.251L337.915 426.857C337.915 427.41 337.468 427.857 336.915 427.857L327.863 427.857M327.863 423.251L324.395 423.251M327.863 427.857L327.863 450.423M327.863 427.857L324.395 427.857M327.863 450.423L324.395 450.423M324.395 400.513L324.395 423.251M324.395 423.251L322.451 423.251L322.451 427.857L324.395 427.857M324.395 427.857L324.395 450.423M499.956 568.007L544.064 533.629C544.24 533.492 544.456 533.418 544.679 533.418L549.046 533.418C549.598 533.418 550.046 533.866 550.046 534.418L550.046 537.813C550.046 538.128 549.898 538.424 549.647 538.613L502.73 573.881M499.956 568.007L497.495 566.149C496.692 565.543 495.564 565.628 494.86 566.347L478.634 582.928L478.634 587.267C478.634 588.734 479.695 589.985 481.141 590.226L483.986 590.7L501.815 579.187C502.385 578.818 502.73 578.186 502.73 577.506L502.73 573.881M499.956 568.007L502.73 573.881M2187.48 400.016C2188.63 399.202 2190.02 398.727 2191.53 398.757C2192.62 398.778 2193.63 399.072 2194.53 399.567M2187.48 400.016C2185.36 401.51 2184.03 404.147 2184.21 406.911C2184.39 409.699 2185.95 412.143 2188.23 413.321M2187.48 400.016C2187.48 400.016 2179.59 402.101 2179.19 406.094C2178.75 410.59 2188.23 413.321 2188.23 413.321M2188.23 413.321C2189.21 413.829 2190.33 414.102 2191.53 414.066C2192.64 414.034 2193.65 413.771 2194.53 413.321M2188.23 413.321L1975.31 413.321L1832.25 413.321M2194.53 413.321C2196.52 412.309 2197.89 410.348 2198.37 407.909C2199.03 404.598 2197.33 401.107 2194.53 399.567M2194.53 413.321C2194.53 413.321 2190.75 417.5 2187.48 418.379C2179.91 420.413 2171.6 413.449 2171.98 405.618C2172.36 397.891 2180.96 391.627 2188.23 394.284C2191.24 395.387 2194.53 399.567 2194.53 399.567M2135.77 384.222C2136.92 383.408 2138.31 382.933 2139.82 382.963C2140.91 382.984 2141.92 383.278 2142.82 383.773M2135.77 384.222C2133.65 385.716 2132.32 388.353 2132.5 391.117C2132.68 393.905 2134.24 396.349 2136.52 397.527M2135.77 384.222C2135.77 384.222 2127.88 386.307 2127.48 390.3C2127.04 394.796 2136.52 397.527 2136.52 397.527M2136.52 397.527C2137.5 398.035 2138.62 398.308 2139.82 398.273C2140.93 398.24 2141.94 397.977 2142.82 397.527M2136.52 397.527L1840.39 397.752M2142.82 397.527C2144.81 396.515 2146.18 394.554 2146.66 392.115C2147.32 388.804 2145.62 385.313 2142.82 383.773M2142.82 397.527C2142.82 397.527 2139.04 401.706 2135.77 402.585C2128.2 404.619 2119.89 397.655 2120.27 389.824C2120.65 382.097 2129.25 375.833 2136.52 378.49C2139.53 379.593 2142.82 383.773 2142.82 383.773M2082.54 368.429C2083.7 367.614 2085.09 367.139 2086.6 367.169C2087.68 367.191 2088.69 367.484 2089.59 367.979M2082.54 368.429C2080.42 369.923 2079.09 372.559 2079.27 375.323C2079.46 378.111 2081.01 380.555 2083.29 381.733M2082.54 368.429C2082.54 368.429 2074.65 370.513 2074.26 374.506C2073.81 379.002 2083.29 381.733 2083.29 381.733M2083.29 381.733C2084.27 382.241 2085.39 382.514 2086.6 382.479C2087.7 382.446 2088.71 382.183 2089.59 381.733M2083.29 381.733L1840.39 381.733M2089.59 381.733C2091.58 380.721 2092.95 378.761 2093.43 376.322C2094.09 373.01 2092.39 369.519 2089.59 367.979M2089.59 381.733C2089.59 381.733 2085.81 385.912 2082.54 386.791C2074.97 388.825 2066.66 381.861 2067.04 374.031C2067.42 366.304 2076.02 360.039 2083.29 362.696C2086.31 363.8 2089.59 367.979 2089.59 367.979M2032.51 352.12C2033.67 351.306 2035.06 350.831 2036.57 350.861C2037.66 350.882 2038.67 351.176 2039.57 351.671M2032.51 352.12C2030.4 353.614 2029.07 356.251 2029.25 359.015C2029.43 361.803 2030.98 364.247 2033.26 365.425M2032.51 352.12C2032.51 352.12 2024.62 354.205 2024.23 358.198C2023.79 362.694 2033.26 365.425 2033.26 365.425M2033.26 365.425C2034.25 365.933 2035.37 366.206 2036.57 366.171C2037.68 366.138 2038.68 365.875 2039.57 365.425M2033.26 365.425L1953.24 363.446L1832.25 363.446M2039.57 365.425C2041.55 364.413 2042.92 362.452 2043.41 360.013C2044.06 356.702 2042.37 353.211 2039.57 351.671M2039.57 365.425C2039.57 365.425 2035.79 369.604 2032.51 370.483C2024.94 372.517 2016.64 365.553 2017.02 357.722C2017.39 349.996 2026 343.731 2033.26 346.388C2036.28 347.491 2039.57 351.671 2039.57 351.671M1980.67 337.144C1981.83 336.329 1983.22 335.854 1984.73 335.884C1985.81 335.906 1986.83 336.199 1987.73 336.694M1980.67 337.144C1978.55 338.638 1977.23 341.275 1977.41 344.038C1977.59 346.826 1979.14 349.27 1981.42 350.449M1980.67 337.144C1980.67 337.144 1972.78 339.228 1972.39 343.221C1971.95 347.717 1981.42 350.449 1981.42 350.449M1981.42 350.449C1982.41 350.957 1983.53 351.23 1984.73 351.194M1984.73 351.194C1985.84 351.161 1986.84 350.899 1987.73 350.449M1984.73 351.194L1940.2 348.006L1832.25 346.963M1987.73 350.449C1989.71 349.437 1991.08 347.476 1991.57 345.037C1992.22 341.725 1990.52 338.234 1987.73 336.694M1987.73 350.449C1987.73 350.449 1983.95 354.627 1980.67 355.507C1973.1 357.541 1964.8 350.576 1965.18 342.746C1965.55 335.019 1974.16 328.755 1981.42 331.412C1984.44 332.515 1987.73 336.694 1987.73 336.694M1926.33 318.211C1927.49 317.397 1928.88 316.922 1930.39 316.952C1931.47 316.973 1932.48 317.267 1933.38 317.762M1926.33 318.211C1924.21 319.705 1922.88 322.342 1923.06 325.106C1923.25 327.894 1924.8 330.338 1927.08 331.516M1926.33 318.211C1926.33 318.211 1918.44 320.296 1918.05 324.289C1917.6 328.785 1927.08 331.516 1927.08 331.516M1927.08 331.516C1928.06 332.024 1929.18 332.297 1930.39 332.262M1930.39 332.262C1931.49 332.229 1932.5 331.966 1933.38 331.516M1930.39 332.262L1832.25 329.459M1933.38 331.516C1935.37 330.504 1936.74 328.543 1937.22 326.104C1937.88 322.793 1936.18 319.302 1933.38 317.762M1933.38 331.516C1933.38 331.516 1929.6 335.695 1926.33 336.574C1918.76 338.608 1910.45 331.644 1910.83 323.813C1911.21 316.087 1919.81 309.822 1927.08 312.479C1930.1 313.582 1933.38 317.762 1933.38 317.762M1832.25 329.459L1272.74 321.311M1832.25 329.459L1832.25 346.963M1272.74 321.311L729.381 313.572M729.381 313.572C729.188 313.902 729.003 314.232 728.826 314.558C727.184 317.583 726.62 321.037 726.62 324.479L726.62 381.733M729.381 313.572L487.8 310.27M487.8 310.27L271.86 310.27M487.8 310.27L487.676 335.195M1832.25 346.963L1591.24 343.082M1832.25 346.963L1832.25 363.446M1591.24 343.082L1220.1 338.702M1591.24 343.082L1591.24 363.446M1220.1 338.702L953.386 338.702M1220.1 338.702L1220.1 361.122M953.386 338.702L487.676 335.195M487.676 335.195L271.86 335.195M487.676 335.195L487.547 361.122M1832.25 363.446L1591.24 363.446M1832.25 363.446L1832.25 381.733M1591.24 363.446L1220.1 361.122M1591.24 363.446L1591.24 418.283M1220.1 361.122L919.052 361.122M919.052 361.122L487.547 361.122M487.547 361.122L271.86 361.122M487.547 361.122L487.193 431.995M1840.39 381.733L1832.25 381.733M1840.39 381.733L1840.39 397.752M1832.25 381.733L1519.88 381.733M1832.25 381.733L1832.25 413.321M1519.88 381.733L1126.01 381.733M1126.01 381.733L726.62 381.733M726.62 381.733L487.921 381.733L271.86 385.049M726.62 381.733L726.62 407.127M1840.39 397.752L1596.88 400.599M726.62 407.127L726.62 421.042C726.62 422.902 726.978 424.75 727.806 426.415C728.243 427.295 728.781 428.316 729.381 429.333M726.62 407.127L997.834 403.482M726.62 407.127L269.313 410.166M997.834 403.482L1297.88 402.357L1448.73 402.357L1596.88 400.599M997.834 403.482L997.834 425.964M1832.25 413.321L1591.24 418.283M1591.24 418.283L1334.45 421.407M729.381 429.333L997.834 425.964M729.381 429.333L487.193 431.995M997.834 425.964L1334.45 421.407M487.193 431.995L271.86 434.552M707.156 307.72L707.156 429.743L706.919 430.988C703.446 449.239 676.979 448.209 674.935 429.743L674.935 307.72C680.028 293.616 699.532 292.472 706.238 305.884L707.156 307.72ZM701.359 309.307L701.359 429.743L698.573 445.919C697.127 454.318 685.301 454.934 682.989 446.732L678.201 429.743L678.201 309.307L679.348 307.292C684.503 298.227 697.935 299.457 701.359 309.307ZM379.555 573.163C379.719 556.058 364.363 542.302 347.302 543.526C331.435 544.664 319.249 557.255 319.356 573.163C319.469 590.069 334.47 603.396 351.344 602.336C367.161 601.342 379.403 589.01 379.555 573.163ZM361.011 573.163C361.089 562.586 352.223 552.813 341.483 553.672C331.508 554.47 324.774 563.156 324.848 573.163C324.92 583.085 331.592 591.575 341.483 592.367C352.145 593.221 360.934 583.659 361.011 573.163ZM379.556 573.166C379.721 556.061 364.365 542.306 347.303 543.53C331.436 544.668 319.251 557.259 319.357 573.166C319.471 590.073 334.472 603.4 351.346 602.339C367.163 601.345 379.404 589.014 379.556 573.166ZM361.013 573.166C361.091 562.59 352.225 552.816 341.484 553.676C331.509 554.474 324.776 563.159 324.849 573.166C324.921 583.088 331.594 591.578 341.484 592.371C352.146 593.225 360.935 583.662 361.013 573.166ZM264.557 622.007C264.721 604.902 249.365 591.147 232.303 592.371C216.436 593.509 204.25 606.1 204.357 622.007C204.471 638.914 219.472 652.241 236.346 651.18C252.163 650.186 264.404 637.855 264.557 622.007ZM246.013 622.007C246.091 611.43 237.225 601.657 226.484 602.516C216.509 603.315 209.776 612 209.849 622.007C209.922 631.929 216.594 640.419 226.484 641.211C237.146 642.065 245.935 632.503 246.013 622.007ZM376.162 451.127C379.913 453.037 384.027 453.488 387.903 453.211C398.47 452.457 405.446 442.985 408.754 432.922L444.715 323.543C447.495 315.085 447.996 305.581 442.772 298.372C440.19 294.809 436.81 291.535 432.642 290.304C431.076 289.841 429.444 289.549 427.798 289.39C414.974 288.144 405.338 299.273 401.266 311.497L366.215 416.726C362.87 426.769 362.815 438.293 369.948 446.115C371.826 448.174 373.924 449.987 376.162 451.127ZM2201.35 406.911C2201.73 398.141 2194.65 391.145 2185.88 390.603C2176.3 390.01 2167.39 398.357 2168.4 407.909C2169.33 416.601 2177.16 422.451 2185.88 421.888C2194.28 421.346 2200.99 415.311 2201.35 406.911ZM2149.64 391.117C2150.02 382.347 2142.94 375.351 2134.17 374.809C2124.59 374.216 2115.68 382.563 2116.69 392.115C2117.62 400.808 2125.45 406.657 2134.17 406.094C2142.56 405.552 2149.28 399.517 2149.64 391.117ZM2096.41 375.323C2096.79 366.553 2089.71 359.557 2080.95 359.015C2071.36 358.422 2062.45 366.769 2063.46 376.322C2064.39 385.014 2072.22 390.863 2080.95 390.3C2089.34 389.758 2096.06 383.724 2096.41 375.323ZM2046.39 359.015C2046.76 350.245 2039.68 343.249 2030.92 342.707C2021.33 342.114 2012.42 350.461 2013.44 360.013C2014.36 368.706 2022.2 374.555 2030.92 373.992C2039.31 373.45 2046.03 367.416 2046.39 359.015ZM1994.55 344.038C1994.92 335.269 1987.84 328.272 1979.08 327.73C1969.49 327.137 1960.58 335.484 1961.6 345.037C1962.52 353.729 1970.36 359.578 1979.08 359.015C1987.47 358.473 1994.19 352.439 1994.55 344.038ZM1940.2 325.106C1940.58 316.336 1933.5 309.34 1924.74 308.798C1915.15 308.205 1906.24 316.552 1907.26 326.104C1908.18 334.797 1916.01 340.646 1924.74 340.083C1933.13 339.541 1939.85 333.507 1940.2 325.106Z" stroke="#838C94"/>
<circle cx="366.843" cy="683.2" r="6.16828" transform="rotate(90 366.843 683.2)" stroke="#838C94"/>
<circle cx="450.508" cy="492.285" r="6.16828" transform="rotate(90 450.508 492.285)" stroke="#838C94"/>
<circle cx="440.859" cy="383.684" r="6.16828" transform="rotate(90 440.859 383.684)" stroke="#838C94"/>
<circle cx="387.418" cy="313.364" r="6.16828" transform="rotate(90 387.418 313.364)" stroke="#838C94"/>
<circle cx="357.765" cy="410.926" r="6.16828" transform="rotate(90 357.765 410.926)" stroke="#838C94"/>
<circle cx="275.1" cy="310.525" r="3.40002" transform="rotate(90 275.1 310.525)" stroke="#838C94"/>
<circle cx="275.1" cy="334.845" r="3.40002" transform="rotate(90 275.1 334.845)" stroke="#838C94"/>
<circle cx="275.1" cy="360.213" r="3.40002" transform="rotate(90 275.1 360.213)" stroke="#838C94"/>
<circle cx="275.1" cy="385.58" r="3.40002" transform="rotate(90 275.1 385.58)" stroke="#838C94"/>
<circle cx="275.1" cy="410.923" r="3.40002" transform="rotate(90 275.1 410.923)" stroke="#838C94"/>
<circle cx="275.1" cy="436.283" r="3.40002" transform="rotate(90 275.1 436.283)" stroke="#838C94"/>
<circle cx="526.883" cy="618.067" r="6.16828" transform="rotate(90 526.883 618.067)" stroke="#838C94"/>
<circle cx="661.648" cy="638.84" r="6.16828" transform="rotate(90 661.648 638.84)" stroke="#838C94"/>
<circle cx="558.981" cy="527.902" r="7.83958" transform="rotate(90 558.981 527.902)" stroke="#838C94"/>
<circle cx="692.024" cy="455.433" r="4.19834" transform="rotate(90 692.024 455.433)" stroke="#838C94"/>
<circle cx="692.024" cy="289.058" r="4.19834" transform="rotate(90 692.024 289.058)" stroke="#838C94"/>
<circle cx="858.746" cy="662.996" r="6.16828" transform="rotate(90 858.746 662.996)" stroke="#838C94"/>
<circle cx="726.789" cy="473.192" r="6.16828" transform="rotate(90 726.789 473.192)" stroke="#838C94"/>
<circle cx="783.035" cy="371.891" r="6.76558" transform="rotate(90 783.035 371.891)" stroke="#838C94"/>
<circle cx="840.766" cy="371.891" r="6.76558" transform="rotate(90 840.766 371.891)" stroke="#838C94"/>
<circle cx="904.484" cy="371.891" r="6.76558" transform="rotate(90 904.484 371.891)" stroke="#838C94"/>
<circle cx="976.566" cy="371.891" r="6.76558" transform="rotate(90 976.566 371.891)" stroke="#838C94"/>
<circle cx="1101.59" cy="403.352" r="6.76558" transform="rotate(90 1101.59 403.352)" stroke="#838C94"/>
<circle cx="1101.59" cy="341.102" r="6.76558" transform="rotate(90 1101.59 341.102)" stroke="#838C94"/>
<circle cx="1249.83" cy="372.086" r="6.76558" transform="rotate(90 1249.83 372.086)" stroke="#838C94"/>
<circle cx="1363.41" cy="371.531" r="6.76558" transform="rotate(90 1363.41 371.531)" stroke="#838C94"/>
<circle cx="1490.01" cy="371.531" r="6.76558" transform="rotate(90 1490.01 371.531)" stroke="#838C94"/>
<circle cx="1632.52" cy="371.531" r="6.76558" transform="rotate(90 1632.52 371.531)" stroke="#838C94"/>
<circle cx="844.144" cy="251.95" r="6.16828" transform="rotate(90 844.144 251.95)" stroke="#838C94"/>
<circle cx="645.359" cy="252.918" r="6.16828" transform="rotate(90 645.359 252.918)" stroke="#838C94"/>
<circle cx="477.078" cy="256.129" r="6.16828" transform="rotate(90 477.078 256.129)" stroke="#838C94"/>
<circle cx="432.683" cy="314.231" r="5.29387" transform="rotate(90 432.683 314.231)" stroke="#838C94"/>
<circle cx="424.444" cy="338.255" r="5.29387" transform="rotate(90 424.444 338.255)" stroke="#838C94"/>
<circle cx="417.452" cy="363.364" r="5.29387" transform="rotate(90 417.452 363.364)" stroke="#838C94"/>
<circle cx="409.222" cy="387.786" r="5.29387" transform="rotate(90 409.222 387.786)" stroke="#838C94"/>
<circle cx="401.808" cy="411.794" r="5.29387" transform="rotate(90 401.808 411.794)" stroke="#838C94"/>
<circle cx="394.261" cy="437.044" r="5.29387" transform="rotate(90 394.261 437.044)" stroke="#838C94"/>
<circle cx="372.999" cy="429.911" r="5.29387" transform="rotate(90 372.999 429.911)" stroke="#838C94"/>
<circle cx="380.233" cy="405.638" r="5.29387" transform="rotate(90 380.233 405.638)" stroke="#838C94"/>
<circle cx="387.913" cy="380.958" r="5.29387" transform="rotate(90 387.913 380.958)" stroke="#838C94"/>
<circle cx="396.519" cy="358.059" r="5.29387" transform="rotate(90 396.519 358.059)" stroke="#838C94"/>
<circle cx="403.925" cy="332.95" r="5.29387" transform="rotate(90 403.925 332.95)" stroke="#838C94"/>
<circle cx="412.163" cy="308.067" r="5.29387" transform="rotate(90 412.163 308.067)" stroke="#838C94"/>
<path d="M303.547 296.899C303.547 292.135 299.383 287.625 294.619 287.625C289.855 287.625 285.993 291.487 285.993 296.251C285.993 301.016 289.855 304.878 294.619 304.878C299.383 304.878 299.858 303.857 299.858 303.857" stroke="#838C94"/>
<path d="M299.196 341.918C297.651 340.458 295.566 339.562 293.272 339.562C288.508 339.562 284.646 343.425 284.646 348.189C284.646 352.953 288.508 356.815 293.272 356.815C295.228 356.815 297.031 356.165 298.478 355.068L300.953 352.472" stroke="#838C94"/>
<path d="M301.793 397.899C301.793 402.663 298.048 407.534 293.283 407.534C288.519 407.534 284.657 403.672 284.657 398.908C284.657 394.143 288.519 390.281 293.283 390.281C296.161 390.281 299.375 392.329 300.942 394.495" stroke="#838C94"/>
<path d="M288.897 454.116C287.02 452.534 284.646 449.539 284.646 446.892C284.646 442.128 288.508 438.266 293.272 438.266C298.036 438.266 301.898 442.128 301.898 446.892C301.898 449.31 300.903 451.496 299.3 453.063L297.866 454.116" stroke="#838C94"/>
</svg>
