<svg width="900" height="920" viewBox="0 0 900 920" fill="none" xmlns="http://www.w3.org/2000/svg">
  <g id="cuerpo" stroke="#838C94" stroke-width="1" stroke-linecap="round" stroke-linejoin="round">
    <path d="M256 118C236 163 242 245 279 336C219 445 173 553 157 687C145 787 209 865 323 887C441 909 565 903 656 879C754 853 806 773 776 683C751 610 706 549 656 481C624 437 601 385 612 333C622 286 693 286 703 231C711 190 683 150 642 156C590 162 585 216 548 230C509 245 469 220 461 174C453 118 406 89 355 89C311 89 276 95 256 118Z"/>
    <path d="M294 212C326 230 356 218 374 238C396 263 401 295 424 321C443 342 476 352 501 370C526 388 536 419 529 455C523 486 500 507 488 536C475 568 476 607 503 630C535 657 587 661 615 692C641 722 646 768 632 811C575 838 495 845 414 840C361 837 311 829 269 811C240 758 238 695 258 646C282 588 333 545 337 484C341 434 299 394 278 347C260 307 259 253 294 212Z"/>
  </g>

  <g id="mastil" stroke="#838C94" stroke-width="1" stroke-linecap="round" stroke-linejoin="round">
    <rect x="430" y="0" width="88" height="360" rx="18"/>
    <line x1="451" y1="0" x2="451" y2="360"/>
    <line x1="473" y1="0" x2="473" y2="360"/>
    <line x1="495" y1="0" x2="495" y2="360"/>
    <line x1="517" y1="0" x2="517" y2="360"/>
    <line x1="430" y1="40" x2="518" y2="40"/>
    <line x1="430" y1="75" x2="518" y2="75"/>
    <line x1="430" y1="111" x2="518" y2="111"/>
    <line x1="430" y1="148" x2="518" y2="148"/>
    <line x1="430" y1="186" x2="518" y2="186"/>
    <line x1="430" y1="225" x2="518" y2="225"/>
    <line x1="430" y1="265" x2="518" y2="265"/>
    <line x1="430" y1="306" x2="518" y2="306"/>
    <circle cx="474" cy="97" r="5"/>
    <circle cx="474" cy="163" r="5"/>
    <circle cx="474" cy="224" r="5"/>
    <circle cx="474" cy="282" r="5"/>
  </g>

  <g id="hardware" stroke="#838C94" stroke-width="1" stroke-linecap="round" stroke-linejoin="round">
    <line x1="444" y1="0" x2="444" y2="815"/>
    <line x1="466" y1="0" x2="466" y2="815"/>
    <line x1="488" y1="0" x2="488" y2="815"/>
    <line x1="510" y1="0" x2="510" y2="815"/>

    <rect x="418" y="430" width="124" height="28" rx="4"/>
    <rect x="418" y="583" width="124" height="28" rx="4"/>

    <circle cx="434" cy="444" r="3"/>
    <circle cx="456" cy="444" r="3"/>
    <circle cx="478" cy="444" r="3"/>
    <circle cx="500" cy="444" r="3"/>
    <circle cx="522" cy="444" r="3"/>

    <circle cx="434" cy="597" r="3"/>
    <circle cx="456" cy="597" r="3"/>
    <circle cx="478" cy="597" r="3"/>
    <circle cx="500" cy="597" r="3"/>
    <circle cx="522" cy="597" r="3"/>

    <rect x="420" y="742" width="120" height="58" rx="6"/>
    <line x1="444" y1="742" x2="444" y2="800"/>
    <line x1="466" y1="742" x2="466" y2="800"/>
    <line x1="488" y1="742" x2="488" y2="800"/>
    <line x1="510" y1="742" x2="510" y2="800"/>

    <circle cx="620" cy="559" r="13"/>
    <circle cx="651" cy="603" r="13"/>
    <circle cx="678" cy="645" r="13"/>
  </g>
</svg>
